<?xml version="1.0" encoding="UTF-8" standalone="no"?>
<!-- Created with Inkscape (http://www.inkscape.org/) -->

<svg
   version="1.1"
   id="svg2"
   width="4533.3335"
   height="2666.6667"
   viewBox="0 0 4533.3335 2666.6667"
   sodipodi:docname="Palmeres.svg"
   inkscape:version="1.3.2 (091e20e, 2023-11-25)"
   xmlns:inkscape="http://www.inkscape.org/namespaces/inkscape"
   xmlns:sodipodi="http://sodipodi.sourceforge.net/DTD/sodipodi-0.dtd"
   xmlns="http://www.w3.org/2000/svg"
   xmlns:svg="http://www.w3.org/2000/svg">
  <defs
     id="defs6" />
  <sodipodi:namedview
     id="namedview4"
     pagecolor="#ffffff"
     bordercolor="#000000"
     borderopacity="0.25"
     inkscape:showpageshadow="2"
     inkscape:pageopacity="0.0"
     inkscape:pagecheckerboard="0"
     inkscape:deskcolor="#d1d1d1"
     showgrid="false"
     inkscape:zoom="0.3258288"
     inkscape:cx="2307.9605"
     inkscape:cy="1385.697"
     inkscape:window-width="2240"
     inkscape:window-height="1112"
     inkscape:window-x="0"
     inkscape:window-y="25"
     inkscape:window-maximized="1"
     inkscape:current-layer="g10" />
  <g
     id="g8"
     inkscape:groupmode="layer"
     inkscape:label="ink_ext_XXXXXX"
     transform="matrix(1.3333333,0,0,-1.3333333,0,2666.6667)">
    <g
       id="g10"
       transform="scale(0.1)">
      <path
         d="m 11513.052,4146.4488 c 0,0 276.3,3951.5 387.6,5164.4 164.6,1793.7002 31.3,4932.6002 31.3,4932.6002 h 613.5 c 0,0 284.3,-4069 284.3,-5481.9002 0,-1412.9 149.7,-4884.5 149.7,-4884.5 0,0 -265.2,-243.2 -818.9,-123.5 -553.6,119.7 -647.5,392.9 -647.5,392.9"
         style="fill:#755032;fill-opacity:1;fill-rule:nonzero;stroke:none"
         id="path150" />
      <path
         d="m 12317.652,8461.7488 c -3.1,-1.4 -6.2,-3 -9.3,-4.5 -5.5,-2.9 -10.9,-5.9 -16.3,-9 -24.4,-14.2 -47.6,-30.6 -72,-44.9 -49.7,-29.2 -111.2,-49.8 -163.7,-14.4 -29.2,19.7 -48.4,49.6 -65.5,79.7 -16.9,29.7 -32.7,61.4 -62.2,80.8 -11.6,7.6 -25.5,14.2 -39.8,11.8 -16.5,-2.7 -28.5,-16.3 -37.8,-29.3 -6.1,-8.5 -12.1,-17.2 -17.8,-26.1 -17.1,-215.2 -35.3,-450.2 -54.1,-696.2 32.8,-6 65.7,-16.5 97.2,-21.6 32.9,-5.4 64.4,-1 90.9,20.4 30.1,24.4 50.6,58.4 80.4,83.2 30.9,25.7 70.7,44.8 111.8,38 43,-7.2 66.1,-45.1 76.8,-84 13,-47.4 22.5,-95.9 33.6,-143.7 6.4,-27.9 12.9,-55.8 19.3,-83.6 9.9,20.2 20,40.3 30.4,60.2 18.3,35.2 37.1,70.1 57.3,104.3 15.6,26.5 39.6,51.9 73.2,49.3 30.1,-2.4 51.7,-22.5 66.5,-48.1 14.3,43.3 32.4,85.4 54.2,125.5 13.1,24.1 29.1,50.9 57.9,57.7 30.6,7.3 56.4,-13.1 74.2,-35.7 39.3,-49.9 75.3,-102.8 109.8,-156.1 11,-17.1 21.8,-34.4 32.4,-51.8 -5.8,244.4 -10.2,474.4 -12.8,680.4 l -2.1,0.5 c -37.3,10.4 -66.6,30.6 -92.7,58.8 -5.5,6 -11.1,12.4 -17.8,17.1 -2.7,2 -5.8,3.7 -8.9,5.1 l -5.6,1.6 c -1,0.3 -2.1,0.5 -3.2,0.7 l -0.8,0.1 c -2.7,0 -5.4,0 -8.1,-0.1 h -1.1 l -1.7,-0.5 c -2.3,-0.7 -4.7,-1.2 -7,-1.9 -1,-0.3 -4.8,-1.8 -5.3,-2 -2.4,-1.1 -4.7,-2.2 -6.9,-3.4 -4.8,-2.6 -9.4,-5.5 -13.8,-8.5 -10.7,-7.1 -16.2,-11.8 -26.8,-20.5 -39.2,-32.6 -83.3,-74.7 -138.8,-65.2 -33.9,5.9 -55.8,32.2 -77.9,56 -9.7,10.4 -19.7,20.3 -32.8,26.1 -0.4,0.1 -5,1.7 -6.1,2 -2.6,0.8 -5.2,1.4 -7.9,1.8 l -0.2,0.1 h -0.3 c -1.5,0.1 -3,0.2 -4.5,0.3 -2.7,0.1 -5.3,0 -8,-0.1 -0.4,0 -3,-0.3 -4,-0.3 l -1.1,-0.2 c -3.1,-0.5 -6.1,-1.2 -9.2,-2 -5.4,-1.4 -10.8,-3.2 -16.1,-5.2 -1.1,-0.5 -1.5,-0.6 -1.7,-0.7 l -0.7,-0.3 c -1.2,-0.5 -2.3,-1.1 -3.5,-1.6"
         style="fill:#95693f;fill-opacity:1;fill-rule:nonzero;stroke:none"
         id="path152" />
      <path
         d="m 12691.052,9915.9488 c -31.1,12.1 -63.5,20.9 -95.9,8.7 -21.4,-8.1 -42.9,-24.9 -61.7,-39.9 -41.8,-33.5 -86.8,-70.7 -144.1,-59.7 -28.7,5.4 -52,24.2 -75.3,40.4 -19,13.3 -40.1,28.3 -62.7,17.1 -26.3,-12.9 -43.4,-45 -60.5,-67.5 -21,-28 -42.8,-55.8 -69.3,-78.9 -47.1,-41.2 -106.8,-64.3 -169.4,-50.1 -7.4,1.7 -14.8,4 -22,6.9 -8.5,-132.6 -18.3,-260.5 -29.5,-382.1 -4.1,-44.8 -8.4,-93.4 -13,-145.4 28.2,22.4 60.2,38.7 96.9,44 56,8 121.6,-16.2 151.9,-64.8 21.1,27 42.3,54.1 63.4,81.1 20.6,26.4 42.1,61.9 77.9,68.5 19.3,3.6 38.7,-4.1 49,-21.2 9.9,-16.2 10,-36.9 12.3,-55.2 7.3,-57.4 14.6,-114.7 22,-172 49,82.8 98,165.7 147,248.5 7.2,12.3 27.2,16.7 37.3,4.8 25.1,-29.6 43.5,-63.2 54.6,-99.5 55,85.2 119.3,164.4 191.6,235.5 7.6,7.5 16.9,8.3 24.8,4.9 -4.4,136.8 -9.9,281.9 -16.1,433.1 l -2.3,0.7 c -36.4,12.3 -71.2,28.2 -106.9,42.1"
         style="fill:#95693f;fill-opacity:1;fill-rule:nonzero;stroke:none"
         id="path154" />
      <path
         d="m 12725.852,6949.5488 c -36.3,20.3 -61.6,54 -91.3,82.1 -11.4,10.7 -25.7,22.4 -39.3,26.5 -13.9,4.3 -28.1,2.9 -41.3,-5 -30.3,-18 -48.5,-55 -73.8,-79.8 -32.5,-31.9 -76.5,-46 -121.6,-41 -93.1,10.4 -151.6,81.7 -199.6,155.2 -57.4,-53 -122.2,-105 -202.2,-112.7 -62.7,-6 -133.6,21.2 -167.4,76.4 -16.3,26.7 -17.8,56.6 -20.9,86.9 -1.4,13.1 -2.5,23.8 -6.3,37.3 -2.3,8 -2.1,7.4 -5.7,13.6 l -0.4,0.7 -1.6,1.5 c 1.4,-0.8 0.9,0.1 -0.2,0.7 -0.9,-0.4 -2.7,-0.9 -0.7,-0.1 l 0.6,0.2 -0.4,0.2 -2.3,-0.5 c -0.5,-0.1 -0.4,0.1 -0.4,0.3 0.1,0.4 0.3,0.8 -2.8,-0.8 -5.5,-2.7 -9.6,-7.4 -13.1,-12.3 -1.4,-1.7 -2.6,-3.6 -3.8,-5.4 -18.6,-249.4 -37.2,-501.8 -55.2,-749 37.1,1.5 73.3,-9.4 103.8,-35.2 33.5,-28.3 54.4,-69.1 75.6,-106.7 18.3,-32.4 37.2,-65.3 65.8,-87.1 32.4,25.5 64.8,51 97.2,76.5 19.2,15.1 37.9,31.1 57.8,45.1 17.1,12 38.5,20.2 59.5,14.6 40.7,-10.9 55.2,-59.1 70.8,-92.8 14.5,-31.5 29.1,-63 43.6,-94.5 30.6,43.4 67.2,82.6 109,115.5 14.7,11.6 32.9,7.3 39.7,-10.4 18.6,-48.2 31.8,-98.3 39.6,-149.3 10.1,39.2 20.7,78.3 32.2,117.1 12.5,42.6 24.4,86.1 40.5,127.6 14.1,36.4 38.4,70.5 81,72.8 41.7,2.2 77.6,-28.2 105.4,-55.8 30.5,-30.3 59.8,-61.8 87.8,-94.5 38.6,-45.2 73.7,-92.5 107.3,-141.1 -9.1,264.7 -18,535.8 -26.1,802.8 -48.4,-6.9 -96.8,-4.2 -140.8,20.4"
         style="fill:#95693f;fill-opacity:1;fill-rule:nonzero;stroke:none"
         id="path156" />
      <path
         d="m 12455.052,10701.949 c 26.2,6.2 52.5,0 76.6,-10.6 53.8,-23.4 95.4,-69.5 138,-108.4 34.2,-31.3 68.4,-62.5 102.6,-93.8 -12.9,263.9 -27.3,536.6 -42.4,808.8 -12,4.2 -24.3,7.3 -36.9,8.2 -60,4.3 -104.3,-43.3 -145.9,-79.4 -43.9,-38.1 -100.9,-78 -162.3,-63.2 -37,8.9 -72.4,39.8 -81.6,76.8 -45.8,-29.4 -75.4,-82.9 -105.2,-126.4 -36.6,-53.4 -83.7,-100.8 -148.2,-118.2 -23.8,-6.3 -48.6,-7.2 -72,-0.7 -2.7,-175.3 -6.6,-349.7 -11.8,-521.2 6.5,-0.5 12.9,-1.3 19.3,-2.6 54.2,-11 82.5,-55.5 113.3,-96.7 5.9,-7.9 12.6,-16.1 20,-23.4 3.6,-3.5 6.9,-6.4 8.8,-7.7 2,-1.3 4.1,-2.5 6.2,-3.7 l 1.5,-0.9 1.3,-0.4 c 1.7,-0.6 3.5,-1 5.2,-1.3 l 4.4,-0.2 c 1.3,0.1 1.9,0.1 2.3,0.1 l 1.2,0.3 c 2,0.5 4,1 5.8,1.7 10.1,4.3 17.2,14.1 23.1,22.8 18.6,27.6 35.7,55.7 56,82.1 21.4,27.8 44.2,54.4 68.7,79.4 10.8,11.2 29.4,8.1 37.2,-4.7 4.2,-7 8.5,-13.9 12.7,-20.8 4.7,18.1 9.4,36.1 14.1,54.2 8.6,33.1 14.7,68.6 29.2,99.7 11.3,24.1 32.4,44.1 58.8,50.2"
         style="fill:#95693f;fill-opacity:1;fill-rule:nonzero;stroke:none"
         id="path158" />
      <path
         d="m 12734.852,4721.9488 c 14.9,-27.8 27.4,-56 50,-78.6 20.8,-20.8 46.8,-36.4 74,-47.2 29.7,-11.8 60.6,-19.4 92,-24.8 -9.1,227.5 -19.7,498.7 -30.8,794.7 -21,9.6 -42,19.1 -63.1,28.7 -26.4,12 -52.7,26.3 -80.1,36 -9.4,3.3 -19.9,6.6 -28.8,0.2 -8,-5.6 -13.5,-14.9 -19,-22.7 -14.6,-20.4 -30.3,-40.2 -47.9,-58.1 -34.4,-35 -77.7,-64.8 -128.1,-68.1 -39.8,-2.6 -76.5,15.1 -105.6,41 -26.1,23.2 -46.2,52.6 -66.4,80.9 -9.5,13.3 -18.4,25.8 -27.4,36.7 -5.4,6.6 -11.1,13.1 -17.2,19.1 -2.5,2.5 -5,5 -7.7,7.4 -0.9,0.8 -6.2,5.1 -6.3,5.4 -5.8,4.3 -12,8.1 -18.5,11.3 l -1,0.4 c -1.9,0.8 -3.7,1.5 -5.6,2.1 -2.9,0.9 -5.7,1.5 -8.6,2.2 -1.2,0.3 -2.4,0.5 -3.7,0.7 h -0.1 c -1.9,0.2 -3.9,0.3 -5.8,0.4 -3.8,0.1 -7.7,0.1 -11.5,-0.3 -9.7,-1.2 -19.3,-4.5 -28,-8.9 -42,-21 -74.4,-57.5 -122,-67.1 -21.8,-4.4 -44.6,-4.5 -65.4,4.2 -23.7,10.1 -36.4,29.1 -45.4,52.4 -3.5,9.3 -6.3,17.2 -13.2,22.9 -3.4,2.9 -8.9,5.2 -15.9,6.4 -11.6,2.1 -29.7,-1.9 -43.4,-8.8 -38.7,-19.6 -55.3,-61.3 -76.3,-97.1 -24.4,-41.6 -62.9,-90.5 -116.7,-88 -50.4,2.4 -72.5,50.3 -79.4,93.8 -4.1,26.3 -6.2,52.8 -11,79 -5.1,28.6 -11.9,56.9 -20.1,84.7 -4.3,14.6 -8.9,29.4 -14,44 -18.7,-259.4 -35.8,-498.9 -50.5,-705.9 8.8,9.7 17.8,19.2 26.8,28.6 18.4,19 37.3,37.6 56.7,55.6 18.6,17.4 38.7,34.9 64.5,39.9 47.4,9.2 85.7,-21.6 112.7,-57.1 29.3,-38.6 46.6,-84.7 69.1,-127.3 24.7,-46.4 52,-91.5 81.7,-134.9 52.8,-77.2 113.7,-148.6 181.1,-213.5 19.4,47.7 39.7,94.9 61.1,141.8 23.1,50.8 47.4,101.1 72.7,150.8 19,37.1 44,107.5 96.7,102.8 26.2,-2.3 40.1,-23.2 50.3,-45.1 12.5,-26.8 24.9,-53.7 37.4,-80.5 20.8,-44.9 41.7,-89.8 62.5,-134.7 46.5,32.7 79.6,84.4 86.4,141.3 2,16.7 13.5,25.2 30,22.9 38,-5.3 61.9,-38.2 78.8,-69.6"
         style="fill:#95693f;fill-opacity:1;fill-rule:nonzero;stroke:none"
         id="path160" />
      <path
         d="m 12583.752,5337.1488 c 42.9,17.8 76.8,56.7 103.3,93.6 14.9,20.8 30.2,43.3 56.7,49.5 29.5,7 57.4,-8.2 83.4,-20 30.3,-13.8 60.6,-27.6 91,-41.4 -7.4,197.6 -14.9,405.5 -22.3,618.3 -43.6,64.6 -86.5,128.8 -137,188.6 -26.9,31.7 -54.9,62.4 -84.2,92 -13.5,13.7 -27,28.1 -43.2,38.8 -12,8 -26.7,16.2 -41.6,13.2 -30.7,-6.1 -39.3,-55.7 -47.1,-79.8 -13.6,-42.1 -26.3,-84.4 -38.3,-126.9 -24.4,-86.6 -45.5,-174 -63.4,-262.2 -5.3,-26 -49.8,-20.1 -46.6,6.4 11.9,99.8 1.9,200.4 -29.2,295.7 -38.4,-34.7 -71.5,-74.6 -98,-119.3 -8.4,-14.2 -33.3,-16.7 -41,0 -18.2,39.5 -36.5,79.1 -54.7,118.6 -8.5,18.4 -16.8,37 -25.6,55.3 -4.2,8.7 -10.4,23.4 -19.7,27.6 -12.6,5.5 -28.8,-11 -37.7,-18 -15.8,-12.4 -31.6,-24.8 -47.3,-37.2 -34.1,-26.8 -68.1,-53.6 -102.1,-80.3 -8.4,-6.7 -18.7,-9.6 -28.7,-3.7 -44.1,25.5 -71.4,69.5 -95.8,112.7 -20.2,35.7 -38.5,73.5 -70.3,98.9 -3.8,3 -15.7,10.4 -21.6,13 -9,3.9 -21.7,7 -32.8,7.5 -5.8,0.3 -11.6,0 -17.3,-0.6 -17.2,-235.6 -33.9,-465.8 -49.6,-683.5 11.8,-11.5 20,-26.3 26.6,-42.1 11,-26.3 20.3,-53.3 28.2,-80.6 8.1,-27.9 14.7,-56.2 19.7,-84.8 4.5,-25.8 6.4,-52.3 10.7,-77.8 2.8,-16.3 6.9,-36 17.4,-47.4 5,-5.4 10.6,-8.6 19.4,-8.5 11,0.1 22,5.9 30.5,12.4 36.2,27.8 51.8,75.3 76.6,112 25,37 61.1,63.7 106.3,69.1 18.9,2.3 38.9,-0.5 55.6,-10.1 22.9,-13.2 29.9,-34.3 39.9,-57.1 6.9,-15.6 18.5,-21 34.3,-21.3 18.2,-0.4 36.5,5.4 52.3,14.7 42.9,25.1 78.7,62.3 131.4,64.6 34.3,1.5 65.4,-13.9 90.4,-36.4 25.3,-22.7 44.6,-51.7 64.3,-79.2 10.4,-14.6 19.1,-26.7 29.7,-39.3 5.5,-6.5 11.3,-12.8 17.3,-18.7 2.7,-2.6 5.5,-5.2 8.3,-7.7 l 6,-5.1 c 14.1,-10.6 24.6,-15.9 40.6,-19.5 18.4,-4.2 37.9,-1.1 55.2,6"
         style="fill:#95693f;fill-opacity:1;fill-rule:nonzero;stroke:none"
         id="path162" />
      <path
         d="m 12226.752,13773.649 c -8.5,13.3 -19.2,25 -31.1,35.4 -50.5,44.4 -122.9,58.9 -188.3,52.9 -20.8,-1.9 -41.1,-5.7 -61.1,-10.8 4.2,-128.6 8.9,-284.4 13.5,-461.5 2.2,-2.7 4.4,-5.3 6.5,-7.9 11.4,-13.8 23.8,-24 41.3,-28.8 16.9,-4.6 35.2,-4.1 52.3,-0.7 43.5,8.9 78.6,34.4 113.1,61.1 37.6,29 75.2,58.2 120.9,73.2 35.8,11.8 74.5,14.3 111.8,10.5 66.8,-6.7 129.9,-29.5 193.4,-50.2 -6.7,102.5 -13,197.5 -18.7,283.3 -11,6.1 -21.4,12.6 -30.7,19.1 -31.7,22.1 -63.5,46.1 -100.7,58.3 -15.8,5.2 -33.2,8.9 -49.9,5.6 -16.2,-3.2 -28.5,-12.5 -40.5,-23.3 -24.6,-22.3 -52.6,-54.7 -89.4,-50.4 -9.4,1.1 -19.1,4.3 -26.6,10.4 -7.2,5.9 -10.7,15.9 -15.8,23.8"
         style="fill:#95693f;fill-opacity:1;fill-rule:nonzero;stroke:none"
         id="path164" />
      <path
         d="m 12308.952,11771.549 c -19.2,5.1 -38.9,2.6 -53.1,-12.1 -17.6,-18.3 -25.7,-43.9 -43.8,-62 -18.9,-18.9 -47.1,-31.7 -73.8,-24.2 -28.1,8 -34.6,33.8 -50.3,54.4 -23.4,31.1 -69.3,36.4 -105,27.6 0.2,-233.9 -1.1,-472.4 -4.5,-710 20.8,-10.8 44.8,-8.6 67.8,-1 28.4,9.5 54.1,27.5 75.1,48.6 22.5,22.5 39.1,50.2 56.8,76.5 37.1,55.1 78.2,110.4 144,132 16.3,5.3 35.4,-12.4 29.1,-29.2 -7.5,-20.3 3.1,-39.4 21.9,-52.2 22.2,-15 46.6,-14.2 71.2,-5.2 53,19.4 90.6,68.7 135.3,101.1 23.3,16.9 49.8,30.8 78.3,35.6 23.3,4 46.6,2.3 69.2,-3.5 -6,107.1 -12.1,214.1 -18.2,320.3 -21.9,34.5 -42.4,71.3 -67.4,103.6 -19.9,25.6 -46.6,39.6 -79.2,31.9 -72.7,-17.1 -98,-95.8 -118,-158.6 -7.2,-22.5 -38.7,-22.7 -45.8,0 -15.1,48.7 -33.9,111.6 -89.6,126.4"
         style="fill:#95693f;fill-opacity:1;fill-rule:nonzero;stroke:none"
         id="path166" />
      <path
         d="m 12113.652,13901.449 c 65.6,-16 127.5,-55 160.5,-115 1.2,-0.2 3.3,-0.3 0.7,-0.1 3.7,-0.3 0.5,-0.2 2.6,0.3 1.3,0.3 2.6,0.6 3.8,1.1 4,1.5 12.4,7.4 17.3,11.6 15.7,13.2 29.8,28.2 46.4,40.5 70.9,52.3 159.9,-0.1 220.3,-43.6 3.7,-2.7 7.4,-5.3 11.2,-7.9 -19,284.1 -31,455.1 -31,455.1 h -613.5 c 0,0 5.4,-127 12.7,-344.4 55.5,12.9 112.8,16.1 169,2.4"
         style="fill:#95693f;fill-opacity:1;fill-rule:nonzero;stroke:none"
         id="path168" />
      <path
         d="m 12608.652,9123.5488 c -12.4,-21.4 -42.6,-10.7 -44.2,11.9 -2.5,36.8 -14.3,72.7 -33.8,104 -54.6,-92.3 -109.1,-184.6 -163.8,-276.9 -5.3,-9 -16.6,-13.7 -26.7,-10.9 -11,3 -16.1,12.3 -17.5,22.9 -5.8,45.6 -11.6,91.1 -17.4,136.7 -2.9,22.4 -5.8,44.8 -8.6,67.2 -2.7,20.8 -4,42.4 -8.3,62.9 -0.7,3.5 -3.4,6.9 -0.9,6.6 -5.3,0.6 -12.4,-6.3 -15.8,-9.3 -16,-14 -28.1,-33.5 -41.1,-50.2 -28.3,-36.1 -56.5,-72.2 -84.8,-108.3 -10.5,-13.4 -37,-6.3 -39.6,10.5 -4.8,30.6 -25.9,52.9 -54.8,64.6 -64.3,26 -126.8,-13.1 -169.8,-60.7 -12.6,-147.2 -26.7,-317.8 -41.7,-505.3 3.6,2.8 7.2,5.4 11.1,7.7 36.2,21.5 78.7,11.2 110.5,-13 31.5,-23.8 50.4,-56.2 69.5,-89.9 15.1,-26.7 32.3,-58.1 61.7,-71.2 12.3,-5.4 19.4,-6 31.3,-5.6 8.1,0.3 7.4,0.3 15.5,2.2 6.1,1.4 12.2,3.3 18.1,5.5 4.9,1.8 9.4,3.8 15.9,7 6.1,3 12,6.3 17.9,9.6 12.1,6.9 23.9,14.4 35.6,22 45.4,29.1 96.9,65 153.7,53.8 32.9,-6.5 55.9,-30.1 77.5,-53.9 9.6,-10.6 19.8,-22.6 33.3,-28.4 2.7,-1.2 5.6,-1.7 8.5,-2.6 l 2.5,-0.5 1,-0.1 c 2.9,-0.1 5.7,-0.1 8.6,0 0.9,0 1.3,0 1.4,-0.1 0.3,0.1 0.9,0.3 1.8,0.5 19.9,4.5 39.7,17.9 56,31 21.1,17 41.2,35.6 64,50.6 20.2,13.3 44.3,23.6 69,21.2 16,-1.5 30.8,-7.1 43.7,-16.8 15.4,-11.5 26.7,-26.8 40.8,-39.7 12.7,-11.5 27.3,-19.6 42.9,-25.4 -1.2,110.8 -1.9,214.2 -1.9,308.4 0,157.6 -3.5,348.4 -9.8,562.8 -6.7,17.2 -13.5,34.3 -20.2,51.5 -73.5,-76.2 -137.6,-160.8 -191.1,-252.3"
         style="fill:#95693f;fill-opacity:1;fill-rule:nonzero;stroke:none"
         id="path170" />
      <path
         d="m 12293.252,13435.949 c -43.5,-18.2 -79.1,-51.4 -116.7,-79 -35.2,-25.9 -73.6,-46.5 -117.4,-52.6 -33.9,-4.7 -69.1,-0.3 -97.7,17.8 2.9,-116 5.8,-240.2 8.4,-371 3.2,-4.9 6.7,-9.3 11.1,-12.6 11.5,-8.4 27.8,-4.2 41.1,2.1 41.4,19.8 63.2,63.4 98.5,91.2 18.8,14.7 40.2,25.7 64.5,26.7 7.3,0.4 15.8,-0.2 22.8,-2.3 7.4,-2.2 13.1,-8.2 19,-12.9 1.6,-1.3 3.2,-2.5 4.8,-3.8 16,37.2 40.4,74.1 75.6,91.6 20,9.9 42.7,13 64,5.2 26,-9.4 42.7,-30.1 57.8,-52.3 27.3,-40.2 56.2,-79 90,-114 32.9,-34.3 72.3,-67 116.3,-86.6 -11.7,184.2 -22.8,356.5 -33,512.5 -67.3,21.7 -135.5,49.3 -205.9,54.5 -35.6,2.6 -70.1,-0.6 -103.2,-14.5"
         style="fill:#95693f;fill-opacity:1;fill-rule:nonzero;stroke:none"
         id="path172" />
      <path
         d="m 12220.852,7703.0488 c -6.2,26.8 -12.4,53.5 -18.6,80.3 -5.2,22.4 -8.7,46.6 -17.6,68 -5.8,14 -15,26.6 -30.1,30.9 -13.2,3.7 -28.2,0.5 -41,-4.6 -34.6,-14 -57.1,-44.6 -81.2,-71.5 -25.5,-28.4 -55.3,-55.1 -93.6,-63.9 -36.8,-8.3 -74.4,-1.3 -110.3,7.6 -17.4,4.2 -35,9.4 -52.8,12.9 -13.1,-171.3 -26.3,-347.6 -39.6,-525.7 8.7,2.7 18.3,3.2 29,0.7 29,-6.9 41.2,-37.5 46,-63.8 2.9,-15.1 4.3,-30.5 5.8,-45.7 1.4,-14.6 1.7,-24.6 6.2,-37.9 17.1,-51 84.6,-74.3 135.1,-67.9 75,9.5 136.1,69 188.7,118.7 11.3,10.7 29,8.4 37.3,-4.8 27.9,-44.7 56.8,-92 99.5,-124.4 35.9,-27.2 85,-42.4 129,-27.2 35.7,12.3 56.1,49.1 79.5,76.2 26.9,31.1 62.5,52.8 105,45.5 38.5,-6.6 67.7,-37 93.5,-64 27.9,-29.2 54.6,-56.3 95.4,-65.4 25.9,-5.7 52.8,-4.5 79.2,-0.3 -6.6,221.7 -12.7,440.2 -17.8,649.4 -51,90.2 -107.5,177.1 -169.4,260.1 -7.8,10.5 -26.4,43 -42.9,32.8 -7.8,-4.9 -12.8,-14.7 -17.2,-22.3 -7.1,-12.3 -13.7,-25 -19.9,-37.7 -25.5,-51.8 -44.1,-106.6 -56.4,-163 -2.6,-11.7 -14.9,-18.3 -26,-17 -12.7,1.5 -19.1,11.6 -20.6,23.3 -3.1,23.9 -13.7,54.7 -31.3,72.7 -4.3,4.4 -5.9,6 -10.9,8.3 l -4.4,1.4 c -2.8,0.6 -3.1,0.6 -0.8,0.1 -1.2,0 -2.5,-0.1 -3.7,-0.1 l -4.8,-1.4 c -1.2,-0.5 -4.6,-2.7 -6.3,-4.1 -5.6,-4.7 -9.5,-11.2 -13.3,-17.4 -44.1,-72.7 -82.2,-149.9 -117.6,-227.2 -8.6,-18.8 -39,-13.1 -43.4,5.6 -12.5,54.3 -25.1,108.6 -37.7,162.8"
         style="fill:#95693f;fill-opacity:1;fill-rule:nonzero;stroke:none"
         id="path174" />
      <path
         d="m 12933.952,4526.3488 c -65.6,11.8 -133,34.7 -181.6,82.4 -24.2,23.7 -39.3,52.4 -54.7,82.1 -8.6,16.7 -17.4,33.5 -30.5,44.2 -17.4,-68.6 -62.1,-128.6 -125.7,-162.3 -10.4,-5.6 -26.9,-3.5 -32.4,8.5 -25,53.7 -49.9,107.4 -74.9,161.1 -11.1,24 -22.3,48 -33.4,72 -3.3,7.1 -6.7,19.4 -13,24.5 -3.2,2.6 -3.9,1.9 -7.9,-1 -15.3,-11.1 -23.2,-32.6 -31.6,-48.8 -11.8,-22.7 -23.4,-45.6 -34.8,-68.6 -44.7,-90.1 -85.6,-182 -122.8,-275.5 -6.6,-16.6 -25.5,-23.4 -39.7,-10.4 -84.5,77.5 -159.5,165.3 -223.2,260.6 -28,42.1 -53.9,85.7 -77.2,130.5 -20.5,39.2 -36.2,82.5 -63.9,117.5 -10.2,12.9 -24.2,27.2 -38.5,33 -16.2,6.5 -31.5,2.8 -46.9,-8.7 -19.9,-14.9 -37.5,-34.2 -55,-51.7 -17.8,-17.7 -35.2,-36 -52.1,-54.6 -11.4,-12.5 -22.4,-25.2 -33.4,-38.1 -29.3,-412.5 -47.8,-676.6 -47.8,-676.6 0,0 94,-273.2 647.6,-392.9 553.7,-119.7 818.9,123.5 818.9,123.5 0,0 -10.9,251.4 -26.7,646.3 -6.3,1 -12.5,1.9 -18.8,3"
         style="fill:#95693f;fill-opacity:1;fill-rule:nonzero;stroke:none"
         id="path176" />
      <path
         d="m 12641.252,10544.649 c -22.6,20.7 -45.2,41.6 -68,62.2 -17.3,15.6 -36.2,29.5 -57.3,39.8 -15.9,7.8 -37,14.7 -54.2,7.9 -20,-8.1 -26.6,-30.5 -31.8,-49.4 -15.8,-57.7 -30.2,-115.8 -45.3,-173.7 -5.2,-20.1 -32.9,-22.7 -43.4,-5.6 -8.5,13.9 -17,27.9 -25.5,41.9 -18.9,-20.7 -36.8,-42.3 -53.3,-64.9 -11,-15.1 -21.4,-30.6 -31.3,-46.4 -8.7,-13.8 -17.2,-28 -28.4,-40.1 -18.4,-19.9 -45.3,-30.8 -72.4,-25.4 -21.1,4.3 -38.8,18.8 -52.8,34.6 -28.1,31.7 -49.4,82.7 -92.5,96.7 -6.7,2.1 -13.6,3.5 -20.5,4.3 -7.6,-235.5 -17.7,-464.8002 -31.1,-682.0002 13.5,-8.9 29.8,-14 45.7,-15 26,-1.6 50.9,2.9 73.9,15.6 28.7,15.9 52.1,39.1 73.2,64 22,26 40.6,54.7 62.3,80.9 21,25.2 50.5,46.6 85,43.6 30.4,-2.7 54.6,-20.2 78.8,-37.4 21,-14.9 42.4,-28.7 67,-25.6 0.2,0.2 5.9,1.3 7,1.6 2.6,0.6 5.1,1.4 7.6,2.3 4.7,1.6 7.3,2.9 12.7,5.8 11.3,6.1 21.9,13.5 32.2,21.2 21.1,16.1 41.9,34.5 64.5,49.2 25.7,16.6 54.8,27.9 85.7,27.6 40.6,-0.4 77.8,-17.8 114.4,-33.3 18,-7.6 36.2,-14.7 54.7,-21.2 -6.7,160.3992 -14.3,327.2002 -22.6,498.1002 -44.8,40.9 -89.5,81.8 -134.3,122.7"
         style="fill:#95693f;fill-opacity:1;fill-rule:nonzero;stroke:none"
         id="path178" />
      <path
         d="m 12614.252,12840.649 c -86,38.2 -152,114.8 -205.6,189.7 -12.6,17.6 -23.4,39.2 -40,53.6 -6.1,5.3 -14.4,9 -20.4,9.4 -7.7,0.6 -12.1,-0.6 -18.3,-3.8 -33.8,-17.5 -53.6,-60.3 -64.5,-95 -5.8,-18.4 -25.7,-21.6 -39.7,-10.5 -11.2,8.9 -22.5,17.8 -33.7,26.8 -17.2,1.9 -33.5,-8.3 -46.1,-19.3 -17.3,-15 -31.2,-32.8 -46.3,-49.9 -25.8,-29.2 -66,-57.3 -106.8,-55 -7.6,0.4 -14.9,2 -21.8,4.5 2.6,-139.6 5,-286.1 7,-437.8 7.5,-2.5 14,-8.3 15.8,-16 13.6,-61.5 70.4,-104.8 132.6,-113.1 24,-3.2 52.4,-0.2 75,10.6 29.9,14.3 52.9,39.1 76.2,61.9 25.5,25 52.3,48.8 85.9,62.1 41.7,16.6 86.8,9.1 129.5,1.1 56.9,-10.5 113.8,-21.2 170.6,-31.9 -8.5,139 -16.9,273.9 -25,403.3 -8.2,2.7 -16.4,5.8 -24.4,9.3"
         style="fill:#95693f;fill-opacity:1;fill-rule:nonzero;stroke:none"
         id="path180" />
      <path
         d="m 12598.252,12392.249 c -48.4,9 -96.9,19.8 -145.7,26.8 -39.5,5.8 -74.2,0.4 -106.2,-24.1 -28.4,-21.7 -51.2,-49.8 -78.7,-72.5 -26.8,-22.2 -56.6,-38.8 -91.4,-44.1 -33.1,-5.1 -67.2,-2 -98.8,9.3 -38.6,13.8 -73.8,38.3 -98.3,70.7 2,-179.6 3.3,-365.5 3.7,-554.7 49.1,8.1 105.4,-2.7 138.7,-42.4 9.1,-10.9 14.4,-23.3 22.2,-35 4.5,-6.8 8.7,-8.9 16.3,-6.9 24.2,6.5 34.4,36.2 47.3,54.7 16,23.2 37.3,41.2 65.8,45.8 28.3,4.5 57.4,-2.1 81.9,-16.7 31.7,-18.9 51.6,-48.7 66.2,-81.4 10.3,24.8 22.7,48.6 39.6,69.9 25.1,31.7 61.8,54.6 102.2,60.2 42.8,6 82.1,-10.4 109.6,-43.5 11,-13.1 21,-27.2 30.6,-41.6 -12.1,209.1 -24.5,414.7 -36.6,612.7 -22.8,4.2 -45.6,8.5 -68.4,12.8"
         style="fill:#95693f;fill-opacity:1;fill-rule:nonzero;stroke:none"
         id="path182" />
      <path
         d="m 15262.552,12347.049 c -158.9,651.1 -538.4,1246.2 -1061.7,1664.9 -523.3,418.7 -1187.2,658.5 -1857.2,670.7 l -948.5,-127.4 c -646.2,-524.8 -855.5,-1405.8 -1026,-2220.6 28.6,74.3 78.7,140.3 142.6,187.8 -125.3,-540.8 -141.8,-1106.5 -48.4,-1653.8 102.9,183 221.1,357.3 353.1,520.5 19.7,-34.2 39.4,-68.3 59.1,-102.5 335.3,415.7 609.3,880.8 810.6,1375.5 -146.5,-625.9 -131.1,-1289 44.1,-1907.5 56.9,165.2 143.1,320.2 253.4,455.7 -29.9,-478.2 44.7,-962.7 217,-1409.8002 179,459.0002 299.2,940.9002 356.7,1430.2002 47.8,-153.6 95.7,-307.1 143.5,-460.7 163.5,600.3 201.8,1234.4 111.8,1849.9 256.6,-463.3 566.7,-897 922.4,-1289.5 57.7,203.2 90.1,413.5 96.2,624.6 73.3,-362.3 211.9,-711.3 407.3,-1025 229.1,476.9 240.4,1053.4 30.1,1538.9 135.5,-111.5 258.3,-238.4 365.3,-377.5 2.4,151.7 -29.2,303.9 -91.9,442.1 204.6,-151.1 468.4,-219.3 720.5,-186.5"
         style="fill:#566e3e;fill-opacity:1;fill-rule:nonzero;stroke:none"
         id="path184" />
      <path
         d="m 10572.052,14931.749 c -682.5998,-410.2 -1181.1998,-1114.9 -1340.8998,-1895.2 60.1,37.1 120.3,74.2 180.4,111.2 -1.9,-60.8 -3.9,-121.6 -5.9,-182.4 237.6,150.6 446.4,346.6 611.7998,574.2 -18.7998,-172.8 -37.5998,-345.7 -56.3998,-518.5 333.6998,442.3 714.7998,848.9 1134.6998,1210.6 -498.1,-659.3 -889.7,-1458.1 -814.2,-2280.9 187.4,171 385.6,330.3 593,476.4 4.8,-62.7 9.6,-125.4 14.5,-188.1 277.6,358.7 475.2,778.9 574.2,1221.5 22.5,-181.8 45,-363.6 67.5,-545.5 320.3,351.8 594.9,745.3 814.5,1167.4 -146.1,-794.6 -290.9,-1623.4 -67.7,-2399.8 47.8,81.6 95.6,163.2 143.4,244.8 -34.6,-151 -11,-314.7 65,-449.8 139.8,418.7 280.3,840.3 341.7,1277.4 61.3,437.1 39.5,895.5 -136.2,1300.5 377.8,-497.4 741.9,-1005.1 1091.8,-1522.4 19.1,101.4 66.1,197.3 134.5,274.6 51.8,-117.5 103.6,-235 155.3,-352.6 86.1,7.5 174.5,-39.7 216.1,-115.5 30.2,678.4 -327.9,1360.7 -903.3,1721.1 525.6,-66.6 1018.6,-359.9 1327.9,-790 -8.3,55.5 -16.7,111 -25.1,166.4 196,-153 365,-340.3 497.2,-550.8 77.9,208.3 134.4,424.6 168.2,644.4 120.3,-283.1 317.7,-532.9 565.2,-715.5 22.8,341.5 -112.6,680 -318.6,953.2 -206.1,273.3 -479,488.6 -760.9,682.8 -418.4,288.2 -868.3,539.3 -1356.3,680.7 -537,155.6 -973.6,63 -1508,27.6 -107.9,-7.1 -212.9,5.9 -318.1,18.8 -122.8,15.1 -245.8,30.3 -373.5,13.4 -251.3,-33.1 -495.4,-129.9 -711.8,-260"
         style="fill:#668944;fill-opacity:1;fill-rule:nonzero;stroke:none"
         id="path186" />
      <path
         d="m 10477.352,15414.549 c -264.7,-54.2 -553.7998,-129.6 -700.8998,-356.2 116.7,13.9 233.3998,27.7 350.0998,41.6 -51,-62.1 -102.1,-124.2 -153.0998,-186.3 182.6998,50.7 365.4998,101.4 548.1998,152.1 -62.4,-70.1 -124.8,-140.1 -187.2,-210.1 599,202.1 1243.2,268.8 1871,193.9 -299.1,-113.5 -620,-161.3 -917.7,-278.2 -453.2,-178 -840.6,-518.5 -1075.4,-945.1 92.9,57.8 185.8,115.5 278.7,173.3 -150.6,-221.3 -254.3,-474.4 -302.2,-737.8 339.2,206 665.7,432.7 977.1,678.6 -32.5,-106.4 -65,-212.7 -97.5,-319 437.7,385.9 856.3,793.6 1253.8,1220.8 -212.8,-545.6 -314.8,-1134.2 -298.2,-1719.7 63.7,67.9 127.3,135.8 191,203.7 29.8,-358.5 102.3,-713.5 215.6,-1054.9 196.7,324.6 312.8,697.6 335.3,1076.6 34.7,-52.8 83.1,-96.4 139.2,-125.6 101.7,457.6 73.8,943.3 -79.7,1386.2 90.9,-40.3 161.7,-114.4 229.9,-186.7 297.6,-315.3 595.1,-630.7 892.6,-946 25.5,97.2 51.1,194.4 76.6,291.6 43.4,-97.2 86.9,-194.5 130.3,-291.7 38.9,49.6 77.9,99.2 116.8,148.9 197.4,-230 394.7,-459.9 592,-689.8 148.2,268.1 101,612.7 -55.2,876.2 -156.2,263.5 -405.9,458.1 -665.4,620.8 -372.6,233.5 -777.7,414.9 -1200,537.2 789.8,128.7 1624.9,-43 2300,-472.7 -68.2,95.6 -136.4,191.2 -204.6,286.9 196.5,-211.8 431.5,-387.8 689.9,-516.9 -53.3,263.3 -274.5,458.1 -500.3,603.7 -493.5,318.4 -1074.7,494.1 -1660.5,517.7 -299.8,12.1 -601.5,-15.4 -893.5,-84.2 -107.7,-25.4 -242.8,-96.1 -354.5,-79.9 -121.3,17.5 -630.4,439 -1842.2,191"
         style="fill:#93ad3f;fill-opacity:1;fill-rule:nonzero;stroke:none"
         id="path188" />
      <path
         d="m 11986.952,4613.0488 c -20.7,26.6 -40.4,54.1 -59.2,82.1 -28,42.1 -53.9,85.7 -77.2,130.5 -20.5,39.2 -36.2,82.5 -63.9,117.5 -10.2,12.9 -24.2,27.2 -38.5,33 -1.8,0.7 -3.7,1.3 -5.5,1.8 0.8,15.9 1.6,31.7 2.4,47.6 33.4,-5.5 61.1,-30.2 82,-57.6 29.3,-38.6 46.6,-84.7 69.1,-127.3 24.7,-46.4 52,-91.5 81.7,-134.9 3.7,-5.4 7.4,-10.8 11.2,-16.1 -0.7,-25.6 -1.4,-51.1 -2.1,-76.6 m -226.3,693.7 c 1,17 2.1,34 3.1,51 4.2,2.1 8.2,4.7 11.8,7.4 36.2,27.8 51.8,75.3 76.6,112 25,37 61.1,63.7 106.3,69.1 4.1,0.5 8.3,0.8 12.4,0.8 15,0 30.1,-3.4 43.2,-10.9 1,-0.6 2,-1.2 2.9,-1.8 -1.3,-26.2 -2.6,-52.5 -3.8,-78.7 -2.3,4.6 -4.4,9.4 -6.3,14.3 -3.5,9.3 -6.3,17.2 -13.2,22.9 -3.4,2.9 -8.9,5.2 -15.9,6.4 -2,0.4 -4.3,0.6 -6.7,0.6 -11.2,0 -25.4,-3.7 -36.7,-9.4 -38.7,-19.6 -55.3,-61.3 -76.3,-97.1 -21.4,-36.4 -53.6,-78.5 -97.4,-86.6 m 161,836 c -3.7,0 -7.5,1 -11.2,3.2 -36.2,20.9 -61.1,54.3 -82.3,89.5 2.4,27.7 4.8,55.3 7.2,83 7,-12 13.6,-24 20.2,-35.8 18.3,-32.4 37.2,-65.3 65.8,-87.1 32.4,25.5 64.8,51 97.2,76.5 19.2,15.1 37.9,31.1 57.8,45.1 2.9,2.1 6,4 9.2,5.8 -2.9,-21.5 -5.7,-43.2 -8.4,-64.8 -12,-9.4 -24,-18.8 -35.9,-28.2 -34.1,-26.8 -68.1,-53.6 -102.1,-80.3 -5.3,-4.2 -11.3,-6.9 -17.5,-6.9 m 17.7,831.3 c -19.6,0 -39.6,3.1 -58.7,9.2 1.7,16.2 3.6,32.3 5.7,48.2 17.7,-6.7 36.9,-10 55,-10 5.7,0 11.4,0.3 16.8,1 75,9.5 136.1,69 188.7,118.7 4.8,4.6 10.8,6.8 16.7,6.8 8,0 15.8,-4 20.6,-11.6 3.7,-6 7.5,-12 11.3,-18.1 1.5,-26.5 1.6,-54.4 0.4,-82.7 -13.1,16.7 -25.3,34.3 -36.9,52 -57.4,-53 -122.2,-105 -202.2,-112.7 -5.7,-0.5 -11.5,-0.8 -17.4,-0.8"
         style="fill:#8f7159;fill-opacity:1;fill-rule:nonzero;stroke:none"
         id="path190" />
      <path
         d="m 11921.352,6195.5488 c -28.6,21.8 -47.5,54.7 -65.8,87.1 -6.6,11.8 -13.2,23.8 -20.2,35.8 7.7,86.8 15.6,173.6 23.9,260.3 6.1,63.7 3.9,238.7 21.4,404.5 19.1,-6.1 39.1,-9.2 58.7,-9.2 5.9,0 11.7,0.3 17.4,0.8 80,7.7 144.8,59.7 202.2,112.7 11.6,-17.7 23.8,-35.3 36.9,-52 -6.3,-155.8 -47.6,-327.4 -60.2,-395.4 -19.4,-105.4 -36,-211.1 -50.1,-317.2 -3.2,-1.8 -6.3,-3.7 -9.2,-5.8 -19.9,-14 -38.6,-30 -57.8,-45.1 -32.4,-25.5 -64.8,-51 -97.2,-76.5"
         style="fill:#a98563;fill-opacity:1;fill-rule:nonzero;stroke:none"
         id="path192" />
      <path
         d="m 11989.052,4689.6488 c -3.8,5.3 -7.5,10.7 -11.2,16.1 -29.7,43.4 -57,88.5 -81.7,134.9 -22.5,42.6 -39.8,88.7 -69.1,127.3 -20.9,27.4 -48.6,52.1 -82,57.6 4.8,93.7 10.1,187.5 15.6,281.2 43.8,8.1 76,50.2 97.4,86.6 21,35.8 37.6,77.5 76.3,97.1 11.3,5.7 25.5,9.4 36.7,9.4 2.4,0 4.7,-0.2 6.7,-0.6 7,-1.2 12.5,-3.5 15.9,-6.4 6.9,-5.7 9.7,-13.6 13.2,-22.9 1.9,-4.9 4,-9.7 6.3,-14.3 -11.6,-254.9 -17.3,-510.6 -24.1,-766"
         style="fill:#a98563;fill-opacity:1;fill-rule:nonzero;stroke:none"
         id="path194" />
      <path
         d="m 11763.752,5357.7488 c 17.8,292.8 39.3,585.4 64.4,877.7 21.2,-35.2 46.1,-68.6 82.3,-89.5 3.7,-2.2 7.5,-3.2 11.2,-3.2 6.2,0 12.2,2.7 17.5,6.9 34,26.7 68,53.5 102.1,80.3 11.9,9.4 23.9,18.8 35.9,28.2 -29.9,-240.1 -48,-481.6 -60.2,-723.8 -0.9,0.6 -1.9,1.2 -2.9,1.8 -13.1,7.5 -28.2,10.9 -43.2,10.9 -4.1,0 -8.3,-0.3 -12.4,-0.8 -45.2,-5.4 -81.3,-32.1 -106.3,-69.1 -24.8,-36.7 -40.4,-84.2 -76.6,-112 -3.6,-2.7 -7.6,-5.3 -11.8,-7.4"
         style="fill:#a98563;fill-opacity:1;fill-rule:nonzero;stroke:none"
         id="path196" />
      <path
         d="m 11941.352,7021.4488 c -18.1,0 -37.3,3.3 -55,10 21.5,162.9 65.4,304.8 159.5,304.8 3,0 6.1,-0.2 9.2,-0.4 97.4,-9.3 133.6,-101.6 140.4,-217.6 -3.8,6.1 -7.6,12.1 -11.3,18.1 -4.8,7.6 -12.6,11.6 -20.6,11.6 -5.9,0 -11.9,-2.2 -16.7,-6.8 -52.6,-49.7 -113.7,-109.2 -188.7,-118.7 -5.4,-0.7 -11.1,-1 -16.8,-1"
         style="fill:#a98563;fill-opacity:1;fill-rule:nonzero;stroke:none"
         id="path198" />
      <path
         d="m 11896.452,4151.2488 c -20,0 -38.6,10.2 -54.6,22.3 -116.7,88.3 -122.7,258.4 -117,404.6 5.2,133.3 11.1,266.6 17.8,399.8 1.8,-0.5 3.7,-1.1 5.5,-1.8 14.3,-5.8 28.3,-20.1 38.5,-33 27.7,-35 43.4,-78.3 63.9,-117.5 23.3,-44.8 49.2,-88.4 77.2,-130.5 18.8,-28 38.5,-55.5 59.2,-82.1 -3.1,-109.6 -6.4,-219.1 -10.6,-328.5 -2.2,-57 -21.3,-131.7 -78.3,-133.3 -0.6,0 -1.1,0 -1.6,0"
         style="fill:#a98563;fill-opacity:1;fill-rule:nonzero;stroke:none"
         id="path200" />
      <path
         d="m 12246.852,7590.9488 c -8.6,37.3 -17.3,74.7 -26,112.1 -6.2,26.8 -12.4,53.5 -18.6,80.3 -5.2,22.4 -8.7,46.6 -17.6,68 -5.8,14 -15,26.6 -30.1,30.9 -4,1.1 -8.2,1.6 -12.4,1.6 -9.7,0 -19.7,-2.6 -28.6,-6.2 -34.6,-14 -57.1,-44.6 -81.2,-71.5 -25.5,-28.4 -55.3,-55.1 -93.6,-63.9 -3.8,-0.8 -7.6,-1.5 -11.5,-2.1 -1.6,16 -2.2,32.1 -2.3,48.2 15,3.2 29.2,9.6 42.3,20.1 30.1,24.4 50.6,58.4 80.4,83.2 26.6,22.1 59.8,39.4 94.8,39.4 5.6,0 11.3,-0.4 17,-1.4 43,-7.2 66.1,-45.1 76.8,-84 13,-47.4 22.5,-95.9 33.6,-143.7 4.6,-20.1 9.3,-40.1 13.9,-60.1 -9.8,-18.1 -22,-35.6 -36.9,-50.9 m -128.5,779.3 c -21.2,0 -42.3,5.4 -62,18.7 -29.2,19.7 -48.4,49.6 -65.5,79.7 -6.5,11.5 -12.9,23.2 -19.9,34.5 8.9,14.6 19.2,27.4 31,38.1 10.6,-14.8 19.8,-30.9 29,-47.2 15.1,-26.7 32.3,-58.1 61.7,-71.2 10.3,-4.5 16.9,-5.7 25.7,-5.7 1.8,0 3.6,0.1 5.6,0.1 8.1,0.3 7.4,0.3 15.5,2.2 6.1,1.4 12.2,3.3 18.1,5.5 4.9,1.8 9.4,3.8 15.9,7 6.1,3 12,6.3 17.9,9.6 12.1,6.9 23.9,14.4 35.6,22 16.4,10.4 33.5,21.8 51.4,31.5 7.3,-13.6 13.6,-28.3 19,-43.8 -1.8,-1 -3.5,-2 -5.3,-3 -24.4,-14.2 -47.6,-30.6 -72,-44.9 -31,-18.2 -66.6,-33.1 -101.7,-33.1"
         style="fill:#8f7159;fill-opacity:1;fill-rule:nonzero;stroke:none"
         id="path202" />
      <path
         d="m 12283.752,7641.8488 c -4.6,20 -9.3,40 -13.9,60.1 -11.1,47.8 -20.6,96.3 -33.6,143.7 -10.7,38.9 -33.8,76.8 -76.8,84 -5.7,1 -11.4,1.4 -17,1.4 -35,0 -68.2,-17.3 -94.8,-39.4 -29.8,-24.8 -50.3,-58.8 -80.4,-83.2 -13.1,-10.5 -27.3,-16.9 -42.3,-20.1 -0.1,21.6 0.8,43.2 1.8,64.7 5.2,114.4 -54.3,489.6 44.2,650.1 7,-11.3 13.4,-23 19.9,-34.5 17.1,-30.1 36.3,-60 65.5,-79.7 19.7,-13.3 40.8,-18.7 62,-18.7 35.1,0 70.7,14.9 101.7,33.1 24.4,14.3 47.6,30.7 72,44.9 1.8,1 3.5,2 5.3,3 44.7,-128 29.3,-309 32.4,-361.6 8,-135.5 15.8,-273.1 -27.6,-405.1 -4.6,-14.1 -10.7,-28.6 -18.4,-42.7"
         style="fill:#a98563;fill-opacity:1;fill-rule:nonzero;stroke:none"
         id="path204" />
      <path
         d="m 12118.352,8417.1488 c -8.8,0 -15.4,1.2 -25.7,5.7 -29.4,13.1 -46.6,44.5 -61.7,71.2 -9.2,16.3 -18.4,32.4 -29,47.2 13.6,12.5 29.3,22 47.3,28.1 32.5,11 61.3,16 86.8,16 68.9,0 113.5,-36.6 142.3,-90.3 -17.9,-9.7 -35,-21.1 -51.4,-31.5 -11.7,-7.6 -23.5,-15.1 -35.6,-22 -5.9,-3.3 -11.8,-6.6 -17.9,-9.6 -6.5,-3.2 -11,-5.2 -15.9,-7 -5.9,-2.2 -12,-4.1 -18.1,-5.5 -8.1,-1.9 -7.4,-1.9 -15.5,-2.2 -2,0 -3.8,-0.1 -5.6,-0.1"
         style="fill:#a98563;fill-opacity:1;fill-rule:nonzero;stroke:none"
         id="path206" />
      <path
         d="m 12121.152,7536.5488 c -76.4,0.1 -137.3,49.6 -164.6,101.1 -17.4,32.9 -25.7,67.4 -29.3,102.5 3.9,0.6 7.7,1.3 11.5,2.1 38.3,8.8 68.1,35.5 93.6,63.9 24.1,26.9 46.6,57.5 81.2,71.5 8.9,3.6 18.9,6.2 28.6,6.2 4.2,0 8.4,-0.5 12.4,-1.6 15.1,-4.3 24.3,-16.9 30.1,-30.9 8.9,-21.4 12.4,-45.6 17.6,-68 6.2,-26.8 12.4,-53.5 18.6,-80.3 8.7,-37.4 17.4,-74.8 26,-112.1 -29.8,-30.9 -70.2,-53.2 -121.9,-54.3 -1.3,0 -2.6,-0.1 -3.8,-0.1"
         style="fill:#a98563;fill-opacity:1;fill-rule:nonzero;stroke:none"
         id="path208" />
      <path
         d="m 11982.752,15169.149 c -9.7,0 -19.8,2.2 -29.3,4.4 -222.9,51.8 -451.6,77.9 -680.4,77.9 -104.3,0 -208.6,-5.5 -312.3,-16.3 -14.5,-1.6 -29.4,-3.2 -44,-3.2 -14.7,0 -29.3,1.7 -43.1,6.6 -27.6,9.9 -51.4,37.4 -46.4,66.3 2.3,13.2 10.1,24.7 18.9,34.7 52.1,58.9 138.1,71.8 216.6,74.6 21.2,0.8 42.4,1.1 63.6,1.1 273.9,0 549.2,-61.5 811.5,-133 26.4,-7.2 54.3,-15.6 72,-36.4 17.8,-20.8 18.6,-58.1 -5.2,-71.6 -6.7,-3.7 -14.2,-5.1 -21.9,-5.1"
         style="fill:#a7bc63;fill-opacity:1;fill-rule:nonzero;stroke:none"
         id="path210" />
      <path
         d="m 10700.752,13929.849 c -12.4,0 -23.4,4 -30.4,14.4 -10.2,15.1 -5.1,35.3 0.7,52.5 81.6,241.2 244.8,452.5 453,598.2 92.2,64.6 212.5,140.7 323.9,165.4 10.8,2.4 29.5,3.7 51.9,3.7 96.1,0 261.5,-25.3 177,-104.6 -110.5,-103.7 -260.6,-152.8 -385.9,-237.9 -199.8,-135.8 -331.4,-359.8 -542.5,-477.3 -14.1,-7.8 -32,-14.4 -47.7,-14.4"
         style="fill:#a7bc63;fill-opacity:1;fill-rule:nonzero;stroke:none"
         id="path212" />
      <path
         d="m 12478.952,13548.449 c -67.8,0 -129.8,47.9 -163.4,107.3 -35,62.1 -44.7,134.9 -50.8,205.8 -15.9,185.4 -11,373.8 26.3,556.4 17.9,87.9 70,305.5 148.2,305.5 27.6,0 58.3,-26.9 91.9,-95.9 50.8,-104.1 71.1,-220.4 80.4,-335.7 18.9,-235 -6.2,-473.4 -73.6,-699.3 -3.6,-12.1 -7.8,-24.9 -17.4,-33.1 -8.9,-7.6 -21.2,-10 -33,-10.8 -2.9,-0.1 -5.8,-0.2 -8.6,-0.2"
         style="fill:#a7bc63;fill-opacity:1;fill-rule:nonzero;stroke:none"
         id="path214" />
      <path
         d="m 9931.0522,13879.349 c -0.1,0 -0.3,0 -0.5,0 -19.4,0.1 -39.6,5.1 -54.3,17.8 -28.4,24.7 -28,68.9 -19.6,105.7 21.3,93 77.6,173.9 137.3,248.4 211.0998,263.5 425.1998,432.9 756.5998,509.2 7.9,1.8 16.7,3.2 25.2,3.2 14.2,0 27.4,-3.9 33.6,-16 11.2,-21.9 -12.4,-44.7 -32.9,-58.1 -254,-166.8 -485.2,-375.7 -643.6,-635 -48.7,-79.7 -108.5,-175.2 -201.7998,-175.2"
         style="fill:#839f67;fill-opacity:1;fill-rule:nonzero;stroke:none"
         id="path216" />
      <path
         d="m 10597.352,12528.249 c -40.1,0 -75,36.2 -85.1,75.8 -10.9,42.3 -0.7,86.8 10,129.1 37.5,147.8 110.1,586.1 262.1,662.4 28.5,14.3 51.1,20.7 68.9,20.7 144,0 -32.6,-420.3 -49,-471.4 -42.4,-131.3 -40.5,-287.4 -139.6,-383.3 -16.5,-16 -36.5,-30.1 -59.3,-32.8 -2.7,-0.4 -5.4,-0.5 -8,-0.5"
         style="fill:#839f67;fill-opacity:1;fill-rule:nonzero;stroke:none"
         id="path218" />
      <path
         d="m 19332.704,4042.6739 c 0,0 276.3,3951.5 387.6,5164.4 164.6,1793.7001 31.3,4932.6001 31.3,4932.6001 h 613.5 c 0,0 284.3,-4069 284.3,-5481.9001 0,-1412.9 149.7,-4884.5 149.7,-4884.5 0,0 -265.2,-243.2 -818.9,-123.5 -553.6,119.7 -647.5,392.9 -647.5,392.9"
         style="fill:#755032;fill-opacity:1;fill-rule:nonzero;stroke:none"
         id="path150-1" />
      <path
         d="m 20137.304,8357.9739 c -3.1,-1.4 -6.2,-3 -9.3,-4.5 -5.5,-2.9 -10.9,-5.9 -16.3,-9 -24.4,-14.2 -47.6,-30.6 -72,-44.9 -49.7,-29.2 -111.2,-49.8 -163.7,-14.4 -29.2,19.7 -48.4,49.6 -65.5,79.7 -16.9,29.7 -32.7,61.4 -62.2,80.8 -11.6,7.6 -25.5,14.2 -39.8,11.8 -16.5,-2.7 -28.5,-16.3 -37.8,-29.3 -6.1,-8.5 -12.1,-17.2 -17.8,-26.1 -17.1,-215.2 -35.3,-450.2 -54.1,-696.2 32.8,-6 65.7,-16.5 97.2,-21.6 32.9,-5.4 64.4,-1 90.9,20.4 30.1,24.4 50.6,58.4 80.4,83.2 30.9,25.7 70.7,44.8 111.8,38 43,-7.2 66.1,-45.1 76.8,-84 13,-47.4 22.5,-95.9 33.6,-143.7 6.4,-27.9 12.9,-55.8 19.3,-83.6 9.9,20.2 20,40.3 30.4,60.2 18.3,35.2 37.1,70.1 57.3,104.3 15.6,26.5 39.6,51.9 73.2,49.3 30.1,-2.4 51.7,-22.5 66.5,-48.1 14.3,43.3 32.4,85.4 54.2,125.5 13.1,24.1 29.1,50.9 57.9,57.7 30.6,7.3 56.4,-13.1 74.2,-35.7 39.3,-49.9 75.3,-102.8 109.8,-156.1 11,-17.1 21.8,-34.4 32.4,-51.8 -5.8,244.4 -10.2,474.4 -12.8,680.4 l -2.1,0.5 c -37.3,10.4 -66.6,30.6 -92.7,58.8 -5.5,6 -11.1,12.4 -17.8,17.1 -2.7,2 -5.8,3.7 -8.9,5.1 l -5.6,1.6 c -1,0.3 -2.1,0.5 -3.2,0.7 l -0.8,0.1 c -2.7,0 -5.4,0 -8.1,-0.1 h -1.1 l -1.7,-0.5 c -2.3,-0.7 -4.7,-1.2 -7,-1.9 -1,-0.3 -4.8,-1.8 -5.3,-2 -2.4,-1.1 -4.7,-2.2 -6.9,-3.4 -4.8,-2.6 -9.4,-5.5 -13.8,-8.5 -10.7,-7.1 -16.2,-11.8 -26.8,-20.5 -39.2,-32.6 -83.3,-74.7 -138.8,-65.2 -33.9,5.9 -55.8,32.2 -77.9,56 -9.7,10.4 -19.7,20.3 -32.8,26.1 -0.4,0.1 -5,1.7 -6.1,2 -2.6,0.8 -5.2,1.4 -7.9,1.8 l -0.2,0.1 h -0.3 c -1.5,0.1 -3,0.2 -4.5,0.3 -2.7,0.1 -5.3,0 -8,-0.1 -0.4,0 -3,-0.3 -4,-0.3 l -1.1,-0.2 c -3.1,-0.5 -6.1,-1.2 -9.2,-2 -5.4,-1.4 -10.8,-3.2 -16.1,-5.2 -1.1,-0.5 -1.5,-0.6 -1.7,-0.7 l -0.7,-0.3 c -1.2,-0.5 -2.3,-1.1 -3.5,-1.6"
         style="fill:#95693f;fill-opacity:1;fill-rule:nonzero;stroke:none"
         id="path152-8" />
      <path
         d="m 20510.704,9812.1739 c -31.1,12.1 -63.5,20.9 -95.9,8.7 -21.4,-8.1 -42.9,-24.9 -61.7,-39.9 -41.8,-33.5 -86.8,-70.7 -144.1,-59.7 -28.7,5.4 -52,24.2 -75.3,40.4 -19,13.3 -40.1,28.3 -62.7,17.1 -26.3,-12.9 -43.4,-45 -60.5,-67.5 -21,-28 -42.8,-55.8 -69.3,-78.9 -47.1,-41.2 -106.8,-64.3 -169.4,-50.1 -7.4,1.7 -14.8,4 -22,6.9 -8.5,-132.6 -18.3,-260.5 -29.5,-382.1 -4.1,-44.8 -8.4,-93.4 -13,-145.4 28.2,22.4 60.2,38.7 96.9,44 56,8 121.6,-16.2 151.9,-64.8 21.1,27 42.3,54.1 63.4,81.1 20.6,26.4 42.1,61.9 77.9,68.5 19.3,3.6 38.7,-4.1 49,-21.2 9.9,-16.2 10,-36.9 12.3,-55.2 7.3,-57.4 14.6,-114.7 22,-172 49,82.8 98,165.7 147,248.5 7.2,12.3 27.2,16.7 37.3,4.8 25.1,-29.6 43.5,-63.2 54.6,-99.5 55,85.2 119.3,164.4 191.6,235.5 7.6,7.5 16.9,8.3 24.8,4.9 -4.4,136.8 -9.9,281.9 -16.1,433.1 l -2.3,0.7 c -36.4,12.3 -71.2,28.2 -106.9,42.1"
         style="fill:#95693f;fill-opacity:1;fill-rule:nonzero;stroke:none"
         id="path154-8" />
      <path
         d="m 20545.504,6845.7739 c -36.3,20.3 -61.6,54 -91.3,82.1 -11.4,10.7 -25.7,22.4 -39.3,26.5 -13.9,4.3 -28.1,2.9 -41.3,-5 -30.3,-18 -48.5,-55 -73.8,-79.8 -32.5,-31.9 -76.5,-46 -121.6,-41 -93.1,10.4 -151.6,81.7 -199.6,155.2 -57.4,-53 -122.2,-105 -202.2,-112.7 -62.7,-6 -133.6,21.2 -167.4,76.4 -16.3,26.7 -17.8,56.6 -20.9,86.9 -1.4,13.1 -2.5,23.8 -6.3,37.3 -2.3,8 -2.1,7.4 -5.7,13.6 l -0.4,0.7 -1.6,1.5 c 1.4,-0.8 0.9,0.1 -0.2,0.7 -0.9,-0.4 -2.7,-0.9 -0.7,-0.1 l 0.6,0.2 -0.4,0.2 -2.3,-0.5 c -0.5,-0.1 -0.4,0.1 -0.4,0.3 0.1,0.4 0.3,0.8 -2.8,-0.8 -5.5,-2.7 -9.6,-7.4 -13.1,-12.3 -1.4,-1.7 -2.6,-3.6 -3.8,-5.4 -18.6,-249.4 -37.2,-501.8 -55.2,-749 37.1,1.5 73.3,-9.4 103.8,-35.2 33.5,-28.3 54.4,-69.1 75.6,-106.7 18.3,-32.4 37.2,-65.3 65.8,-87.1 32.4,25.5 64.8,51 97.2,76.5 19.2,15.1 37.9,31.1 57.8,45.1 17.1,12 38.5,20.2 59.5,14.6 40.7,-10.9 55.2,-59.1 70.8,-92.8 14.5,-31.5 29.1,-63 43.6,-94.5 30.6,43.4 67.2,82.6 109,115.5 14.7,11.6 32.9,7.3 39.7,-10.4 18.6,-48.2 31.8,-98.3 39.6,-149.3 10.1,39.2 20.7,78.3 32.2,117.1 12.5,42.6 24.4,86.1 40.5,127.6 14.1,36.4 38.4,70.5 81,72.8 41.7,2.2 77.6,-28.2 105.4,-55.8 30.5,-30.3 59.8,-61.8 87.8,-94.5 38.6,-45.2 73.7,-92.5 107.3,-141.1 -9.1,264.7 -18,535.8 -26.1,802.8 -48.4,-6.9 -96.8,-4.2 -140.8,20.4"
         style="fill:#95693f;fill-opacity:1;fill-rule:nonzero;stroke:none"
         id="path156-3" />
      <path
         d="m 20274.704,10598.174 c 26.2,6.2 52.5,0 76.6,-10.6 53.8,-23.4 95.4,-69.5 138,-108.4 34.2,-31.3 68.4,-62.5 102.6,-93.8 -12.9,263.9 -27.3,536.6 -42.4,808.8 -12,4.2 -24.3,7.3 -36.9,8.2 -60,4.3 -104.3,-43.3 -145.9,-79.4 -43.9,-38.1 -100.9,-78 -162.3,-63.2 -37,8.9 -72.4,39.8 -81.6,76.8 -45.8,-29.4 -75.4,-82.9 -105.2,-126.4 -36.6,-53.4 -83.7,-100.8 -148.2,-118.2 -23.8,-6.3 -48.6,-7.2 -72,-0.7 -2.7,-175.3 -6.6,-349.7 -11.8,-521.2 6.5,-0.5 12.9,-1.3 19.3,-2.6 54.2,-11 82.5,-55.5 113.3,-96.7 5.9,-7.9 12.6,-16.1 20,-23.4 3.6,-3.5 6.9,-6.4 8.8,-7.7 2,-1.3 4.1,-2.5 6.2,-3.7 l 1.5,-0.9 1.3,-0.4 c 1.7,-0.6 3.5,-1 5.2,-1.3 l 4.4,-0.2 c 1.3,0.1 1.9,0.1 2.3,0.1 l 1.2,0.3 c 2,0.5 4,1 5.8,1.7 10.1,4.3 17.2,14.1 23.1,22.8 18.6,27.6 35.7,55.7 56,82.1 21.4,27.8 44.2,54.4 68.7,79.4 10.8,11.2 29.4,8.1 37.2,-4.7 4.2,-7 8.5,-13.9 12.7,-20.8 4.7,18.1 9.4,36.1 14.1,54.2 8.6,33.1 14.7,68.6 29.2,99.7 11.3,24.1 32.4,44.1 58.8,50.2"
         style="fill:#95693f;fill-opacity:1;fill-rule:nonzero;stroke:none"
         id="path158-5" />
      <path
         d="m 20554.504,4618.1739 c 14.9,-27.8 27.4,-56 50,-78.6 20.8,-20.8 46.8,-36.4 74,-47.2 29.7,-11.8 60.6,-19.4 92,-24.8 -9.1,227.5 -19.7,498.7 -30.8,794.7 -21,9.6 -42,19.1 -63.1,28.7 -26.4,12 -52.7,26.3 -80.1,36 -9.4,3.3 -19.9,6.6 -28.8,0.2 -8,-5.6 -13.5,-14.9 -19,-22.7 -14.6,-20.4 -30.3,-40.2 -47.9,-58.1 -34.4,-35 -77.7,-64.8 -128.1,-68.1 -39.8,-2.6 -76.5,15.1 -105.6,41 -26.1,23.2 -46.2,52.6 -66.4,80.9 -9.5,13.3 -18.4,25.8 -27.4,36.7 -5.4,6.6 -11.1,13.1 -17.2,19.1 -2.5,2.5 -5,5 -7.7,7.4 -0.9,0.8 -6.2,5.1 -6.3,5.4 -5.8,4.3 -12,8.1 -18.5,11.3 l -1,0.4 c -1.9,0.8 -3.7,1.5 -5.6,2.1 -2.9,0.9 -5.7,1.5 -8.6,2.2 -1.2,0.3 -2.4,0.5 -3.7,0.7 h -0.1 c -1.9,0.2 -3.9,0.3 -5.8,0.4 -3.8,0.1 -7.7,0.1 -11.5,-0.3 -9.7,-1.2 -19.3,-4.5 -28,-8.9 -42,-21 -74.4,-57.5 -122,-67.1 -21.8,-4.4 -44.6,-4.5 -65.4,4.2 -23.7,10.1 -36.4,29.1 -45.4,52.4 -3.5,9.3 -6.3,17.2 -13.2,22.9 -3.4,2.9 -8.9,5.2 -15.9,6.4 -11.6,2.1 -29.7,-1.9 -43.4,-8.8 -38.7,-19.6 -55.3,-61.3 -76.3,-97.1 -24.4,-41.6 -62.9,-90.5 -116.7,-88 -50.4,2.4 -72.5,50.3 -79.4,93.8 -4.1,26.3 -6.2,52.8 -11,79 -5.1,28.6 -11.9,56.9 -20.1,84.7 -4.3,14.6 -8.9,29.4 -14,44 -18.7,-259.4 -35.8,-498.9 -50.5,-705.9 8.8,9.7 17.8,19.2 26.8,28.6 18.4,19 37.3,37.6 56.7,55.6 18.6,17.4 38.7,34.9 64.5,39.9 47.4,9.2 85.7,-21.6 112.7,-57.1 29.3,-38.6 46.6,-84.7 69.1,-127.3 24.7,-46.4 52,-91.5 81.7,-134.9 52.8,-77.2 113.7,-148.6 181.1,-213.5 19.4,47.7 39.7,94.9 61.1,141.8 23.1,50.8 47.4,101.1 72.7,150.8 19,37.1 44,107.5 96.7,102.8 26.2,-2.3 40.1,-23.2 50.3,-45.1 12.5,-26.8 24.9,-53.7 37.4,-80.5 20.8,-44.9 41.7,-89.8 62.5,-134.7 46.5,32.7 79.6,84.4 86.4,141.3 2,16.7 13.5,25.2 30,22.9 38,-5.3 61.9,-38.2 78.8,-69.6"
         style="fill:#95693f;fill-opacity:1;fill-rule:nonzero;stroke:none"
         id="path160-2" />
      <path
         d="m 20403.404,5233.3739 c 42.9,17.8 76.8,56.7 103.3,93.6 14.9,20.8 30.2,43.3 56.7,49.5 29.5,7 57.4,-8.2 83.4,-20 30.3,-13.8 60.6,-27.6 91,-41.4 -7.4,197.6 -14.9,405.5 -22.3,618.3 -43.6,64.6 -86.5,128.8 -137,188.6 -26.9,31.7 -54.9,62.4 -84.2,92 -13.5,13.7 -27,28.1 -43.2,38.8 -12,8 -26.7,16.2 -41.6,13.2 -30.7,-6.1 -39.3,-55.7 -47.1,-79.8 -13.6,-42.1 -26.3,-84.4 -38.3,-126.9 -24.4,-86.6 -45.5,-174 -63.4,-262.2 -5.3,-26 -49.8,-20.1 -46.6,6.4 11.9,99.8 1.9,200.4 -29.2,295.7 -38.4,-34.7 -71.5,-74.6 -98,-119.3 -8.4,-14.2 -33.3,-16.7 -41,0 -18.2,39.5 -36.5,79.1 -54.7,118.6 -8.5,18.4 -16.8,37 -25.6,55.3 -4.2,8.7 -10.4,23.4 -19.7,27.6 -12.6,5.5 -28.8,-11 -37.7,-18 -15.8,-12.4 -31.6,-24.8 -47.3,-37.2 -34.1,-26.8 -68.1,-53.6 -102.1,-80.3 -8.4,-6.7 -18.7,-9.6 -28.7,-3.7 -44.1,25.5 -71.4,69.5 -95.8,112.7 -20.2,35.7 -38.5,73.5 -70.3,98.9 -3.8,3 -15.7,10.4 -21.6,13 -9,3.9 -21.7,7 -32.8,7.5 -5.8,0.3 -11.6,0 -17.3,-0.6 -17.2,-235.6 -33.9,-465.8 -49.6,-683.5 11.8,-11.5 20,-26.3 26.6,-42.1 11,-26.3 20.3,-53.3 28.2,-80.6 8.1,-27.9 14.7,-56.2 19.7,-84.8 4.5,-25.8 6.4,-52.3 10.7,-77.8 2.8,-16.3 6.9,-36 17.4,-47.4 5,-5.4 10.6,-8.6 19.4,-8.5 11,0.1 22,5.9 30.5,12.4 36.2,27.8 51.8,75.3 76.6,112 25,37 61.1,63.7 106.3,69.1 18.9,2.3 38.9,-0.5 55.6,-10.1 22.9,-13.2 29.9,-34.3 39.9,-57.1 6.9,-15.6 18.5,-21 34.3,-21.3 18.2,-0.4 36.5,5.4 52.3,14.7 42.9,25.1 78.7,62.3 131.4,64.6 34.3,1.5 65.4,-13.9 90.4,-36.4 25.3,-22.7 44.6,-51.7 64.3,-79.2 10.4,-14.6 19.1,-26.7 29.7,-39.3 5.5,-6.5 11.3,-12.8 17.3,-18.7 2.7,-2.6 5.5,-5.2 8.3,-7.7 l 6,-5.1 c 14.1,-10.6 24.6,-15.9 40.6,-19.5 18.4,-4.2 37.9,-1.1 55.2,6"
         style="fill:#95693f;fill-opacity:1;fill-rule:nonzero;stroke:none"
         id="path162-2" />
      <path
         d="m 20046.404,13669.874 c -8.5,13.3 -19.2,25 -31.1,35.4 -50.5,44.4 -122.9,58.9 -188.3,52.9 -20.8,-1.9 -41.1,-5.7 -61.1,-10.8 4.2,-128.6 8.9,-284.4 13.5,-461.5 2.2,-2.7 4.4,-5.3 6.5,-7.9 11.4,-13.8 23.8,-24 41.3,-28.8 16.9,-4.6 35.2,-4.1 52.3,-0.7 43.5,8.9 78.6,34.4 113.1,61.1 37.6,29 75.2,58.2 120.9,73.2 35.8,11.8 74.5,14.3 111.8,10.5 66.8,-6.7 129.9,-29.5 193.4,-50.2 -6.7,102.5 -13,197.5 -18.7,283.3 -11,6.1 -21.4,12.6 -30.7,19.1 -31.7,22.1 -63.5,46.1 -100.7,58.3 -15.8,5.2 -33.2,8.9 -49.9,5.6 -16.2,-3.2 -28.5,-12.5 -40.5,-23.3 -24.6,-22.3 -52.6,-54.7 -89.4,-50.4 -9.4,1.1 -19.1,4.3 -26.6,10.4 -7.2,5.9 -10.7,15.9 -15.8,23.8"
         style="fill:#95693f;fill-opacity:1;fill-rule:nonzero;stroke:none"
         id="path164-6" />
      <path
         d="m 20128.604,11667.774 c -19.2,5.1 -38.9,2.6 -53.1,-12.1 -17.6,-18.3 -25.7,-43.9 -43.8,-62 -18.9,-18.9 -47.1,-31.7 -73.8,-24.2 -28.1,8 -34.6,33.8 -50.3,54.4 -23.4,31.1 -69.3,36.4 -105,27.6 0.2,-233.9 -1.1,-472.4 -4.5,-710 20.8,-10.8 44.8,-8.6 67.8,-1 28.4,9.5 54.1,27.5 75.1,48.6 22.5,22.5 39.1,50.2 56.8,76.5 37.1,55.1 78.2,110.4 144,132 16.3,5.3 35.4,-12.4 29.1,-29.2 -7.5,-20.3 3.1,-39.4 21.9,-52.2 22.2,-15 46.6,-14.2 71.2,-5.2 53,19.4 90.6,68.7 135.3,101.1 23.3,16.9 49.8,30.8 78.3,35.6 23.3,4 46.6,2.3 69.2,-3.5 -6,107.1 -12.1,214.1 -18.2,320.3 -21.9,34.5 -42.4,71.3 -67.4,103.6 -19.9,25.6 -46.6,39.6 -79.2,31.9 -72.7,-17.1 -98,-95.8 -118,-158.6 -7.2,-22.5 -38.7,-22.7 -45.8,0 -15.1,48.7 -33.9,111.6 -89.6,126.4"
         style="fill:#95693f;fill-opacity:1;fill-rule:nonzero;stroke:none"
         id="path166-6" />
      <path
         d="m 19933.304,13797.674 c 65.6,-16 127.5,-55 160.5,-115 1.2,-0.2 3.3,-0.3 0.7,-0.1 3.7,-0.3 0.5,-0.2 2.6,0.3 1.3,0.3 2.6,0.6 3.8,1.1 4,1.5 12.4,7.4 17.3,11.6 15.7,13.2 29.8,28.2 46.4,40.5 70.9,52.3 159.9,-0.1 220.3,-43.6 3.7,-2.7 7.4,-5.3 11.2,-7.9 -19,284.1 -31,455.1 -31,455.1 h -613.5 c 0,0 5.4,-127 12.7,-344.4 55.5,12.9 112.8,16.1 169,2.4"
         style="fill:#95693f;fill-opacity:1;fill-rule:nonzero;stroke:none"
         id="path168-7" />
      <path
         d="m 20428.304,9019.7739 c -12.4,-21.4 -42.6,-10.7 -44.2,11.9 -2.5,36.8 -14.3,72.7 -33.8,104 -54.6,-92.3 -109.1,-184.6 -163.8,-276.9 -5.3,-9 -16.6,-13.7 -26.7,-10.9 -11,3 -16.1,12.3 -17.5,22.9 -5.8,45.6 -11.6,91.1 -17.4,136.7 -2.9,22.4 -5.8,44.8 -8.6,67.2 -2.7,20.8 -4,42.4 -8.3,62.9 -0.7,3.5 -3.4,6.9 -0.9,6.6 -5.3,0.6 -12.4,-6.3 -15.8,-9.3 -16,-14 -28.1,-33.5 -41.1,-50.2 -28.3,-36.1 -56.5,-72.2 -84.8,-108.3 -10.5,-13.4 -37,-6.3 -39.6,10.5 -4.8,30.6 -25.9,52.9 -54.8,64.6 -64.3,26 -126.8,-13.1 -169.8,-60.7 -12.6,-147.2 -26.7,-317.8 -41.7,-505.3 3.6,2.8 7.2,5.4 11.1,7.7 36.2,21.5 78.7,11.2 110.5,-13 31.5,-23.8 50.4,-56.2 69.5,-89.9 15.1,-26.7 32.3,-58.1 61.7,-71.2 12.3,-5.4 19.4,-6 31.3,-5.6 8.1,0.3 7.4,0.3 15.5,2.2 6.1,1.4 12.2,3.3 18.1,5.5 4.9,1.8 9.4,3.8 15.9,7 6.1,3 12,6.3 17.9,9.6 12.1,6.9 23.9,14.4 35.6,22 45.4,29.1 96.9,65 153.7,53.8 32.9,-6.5 55.9,-30.1 77.5,-53.9 9.6,-10.6 19.8,-22.6 33.3,-28.4 2.7,-1.2 5.6,-1.7 8.5,-2.6 l 2.5,-0.5 1,-0.1 c 2.9,-0.1 5.7,-0.1 8.6,0 0.9,0 1.3,0 1.4,-0.1 0.3,0.1 0.9,0.3 1.8,0.5 19.9,4.5 39.7,17.9 56,31 21.1,17 41.2,35.6 64,50.6 20.2,13.3 44.3,23.6 69,21.2 16,-1.5 30.8,-7.1 43.7,-16.8 15.4,-11.5 26.7,-26.8 40.8,-39.7 12.7,-11.5 27.3,-19.6 42.9,-25.4 -1.2,110.8 -1.9,214.2 -1.9,308.4 0,157.6 -3.5,348.4 -9.8,562.8 -6.7,17.2 -13.5,34.3 -20.2,51.5 -73.5,-76.2 -137.6,-160.8 -191.1,-252.3"
         style="fill:#95693f;fill-opacity:1;fill-rule:nonzero;stroke:none"
         id="path170-8" />
      <path
         d="m 20112.904,13332.174 c -43.5,-18.2 -79.1,-51.4 -116.7,-79 -35.2,-25.9 -73.6,-46.5 -117.4,-52.6 -33.9,-4.7 -69.1,-0.3 -97.7,17.8 2.9,-116 5.8,-240.2 8.4,-371 3.2,-4.9 6.7,-9.3 11.1,-12.6 11.5,-8.4 27.8,-4.2 41.1,2.1 41.4,19.8 63.2,63.4 98.5,91.2 18.8,14.7 40.2,25.7 64.5,26.7 7.3,0.4 15.8,-0.2 22.8,-2.3 7.4,-2.2 13.1,-8.2 19,-12.9 1.6,-1.3 3.2,-2.5 4.8,-3.8 16,37.2 40.4,74.1 75.6,91.6 20,9.9 42.7,13 64,5.2 26,-9.4 42.7,-30.1 57.8,-52.3 27.3,-40.2 56.2,-79 90,-114 32.9,-34.3 72.3,-67 116.3,-86.6 -11.7,184.2 -22.8,356.5 -33,512.5 -67.3,21.7 -135.5,49.3 -205.9,54.5 -35.6,2.6 -70.1,-0.6 -103.2,-14.5"
         style="fill:#95693f;fill-opacity:1;fill-rule:nonzero;stroke:none"
         id="path172-4" />
      <path
         d="m 20040.504,7599.2739 c -6.2,26.8 -12.4,53.5 -18.6,80.3 -5.2,22.4 -8.7,46.6 -17.6,68 -5.8,14 -15,26.6 -30.1,30.9 -13.2,3.7 -28.2,0.5 -41,-4.6 -34.6,-14 -57.1,-44.6 -81.2,-71.5 -25.5,-28.4 -55.3,-55.1 -93.6,-63.9 -36.8,-8.3 -74.4,-1.3 -110.3,7.6 -17.4,4.2 -35,9.4 -52.8,12.9 -13.1,-171.3 -26.3,-347.6 -39.6,-525.7 8.7,2.7 18.3,3.2 29,0.7 29,-6.9 41.2,-37.5 46,-63.8 2.9,-15.1 4.3,-30.5 5.8,-45.7 1.4,-14.6 1.7,-24.6 6.2,-37.9 17.1,-51 84.6,-74.3 135.1,-67.9 75,9.5 136.1,69 188.7,118.7 11.3,10.7 29,8.4 37.3,-4.8 27.9,-44.7 56.8,-92 99.5,-124.4 35.9,-27.2 85,-42.4 129,-27.2 35.7,12.3 56.1,49.1 79.5,76.2 26.9,31.1 62.5,52.8 105,45.5 38.5,-6.6 67.7,-37 93.5,-64 27.9,-29.2 54.6,-56.3 95.4,-65.4 25.9,-5.7 52.8,-4.5 79.2,-0.3 -6.6,221.7 -12.7,440.2 -17.8,649.4 -51,90.2 -107.5,177.1 -169.4,260.1 -7.8,10.5 -26.4,43 -42.9,32.8 -7.8,-4.9 -12.8,-14.7 -17.2,-22.3 -7.1,-12.3 -13.7,-25 -19.9,-37.7 -25.5,-51.8 -44.1,-106.6 -56.4,-163 -2.6,-11.7 -14.9,-18.3 -26,-17 -12.7,1.5 -19.1,11.6 -20.6,23.3 -3.1,23.9 -13.7,54.7 -31.3,72.7 -4.3,4.4 -5.9,6 -10.9,8.3 l -4.4,1.4 c -2.8,0.6 -3.1,0.6 -0.8,0.1 -1.2,0 -2.5,-0.1 -3.7,-0.1 l -4.8,-1.4 c -1.2,-0.5 -4.6,-2.7 -6.3,-4.1 -5.6,-4.7 -9.5,-11.2 -13.3,-17.4 -44.1,-72.7 -82.2,-149.9 -117.6,-227.2 -8.6,-18.8 -39,-13.1 -43.4,5.6 -12.5,54.3 -25.1,108.6 -37.7,162.8"
         style="fill:#95693f;fill-opacity:1;fill-rule:nonzero;stroke:none"
         id="path174-1" />
      <path
         d="m 20753.604,4422.5739 c -65.6,11.8 -133,34.7 -181.6,82.4 -24.2,23.7 -39.3,52.4 -54.7,82.1 -8.6,16.7 -17.4,33.5 -30.5,44.2 -17.4,-68.6 -62.1,-128.6 -125.7,-162.3 -10.4,-5.6 -26.9,-3.5 -32.4,8.5 -25,53.7 -49.9,107.4 -74.9,161.1 -11.1,24 -22.3,48 -33.4,72 -3.3,7.1 -6.7,19.4 -13,24.5 -3.2,2.6 -3.9,1.9 -7.9,-1 -15.3,-11.1 -23.2,-32.6 -31.6,-48.8 -11.8,-22.7 -23.4,-45.6 -34.8,-68.6 -44.7,-90.1 -85.6,-182 -122.8,-275.5 -6.6,-16.6 -25.5,-23.4 -39.7,-10.4 -84.5,77.5 -159.5,165.3 -223.2,260.6 -28,42.1 -53.9,85.7 -77.2,130.5 -20.5,39.2 -36.2,82.5 -63.9,117.5 -10.2,12.9 -24.2,27.2 -38.5,33 -16.2,6.5 -31.5,2.8 -46.9,-8.7 -19.9,-14.9 -37.5,-34.2 -55,-51.7 -17.8,-17.7 -35.2,-36 -52.1,-54.6 -11.4,-12.5 -22.4,-25.2 -33.4,-38.1 -29.3,-412.5 -47.8,-676.6 -47.8,-676.6 0,0 94,-273.2 647.6,-392.9 553.7,-119.7 818.9,123.5 818.9,123.5 0,0 -10.9,251.4 -26.7,646.3 -6.3,1 -12.5,1.9 -18.8,3"
         style="fill:#95693f;fill-opacity:1;fill-rule:nonzero;stroke:none"
         id="path176-7" />
      <path
         d="m 20460.904,10440.874 c -22.6,20.7 -45.2,41.6 -68,62.2 -17.3,15.6 -36.2,29.5 -57.3,39.8 -15.9,7.8 -37,14.7 -54.2,7.9 -20,-8.1 -26.6,-30.5 -31.8,-49.4 -15.8,-57.7 -30.2,-115.8 -45.3,-173.7 -5.2,-20.1 -32.9,-22.7 -43.4,-5.6 -8.5,13.9 -17,27.9 -25.5,41.9 -18.9,-20.7 -36.8,-42.3 -53.3,-64.9 -11,-15.1 -21.4,-30.6 -31.3,-46.4 -8.7,-13.8 -17.2,-28 -28.4,-40.1 -18.4,-19.9 -45.3,-30.8 -72.4,-25.4 -21.1,4.3 -38.8,18.8 -52.8,34.6 -28.1,31.7 -49.4,82.7 -92.5,96.7 -6.7,2.1 -13.6,3.5 -20.5,4.3 -7.6,-235.5 -17.7,-464.8001 -31.1,-682.0001 13.5,-8.9 29.8,-14 45.7,-15 26,-1.6 50.9,2.9 73.9,15.6 28.7,15.9 52.1,39.1 73.2,64 22,26 40.6,54.7 62.3,80.9 21,25.2 50.5,46.6 85,43.6 30.4,-2.7 54.6,-20.2 78.8,-37.4 21,-14.9 42.4,-28.7 67,-25.6 0.2,0.2 5.9,1.3 7,1.6 2.6,0.6 5.1,1.4 7.6,2.3 4.7,1.6 7.3,2.9 12.7,5.8 11.3,6.1 21.9,13.5 32.2,21.2 21.1,16.1 41.9,34.5 64.5,49.2 25.7,16.6 54.8,27.9 85.7,27.6 40.6,-0.4 77.8,-17.8 114.4,-33.3 18,-7.6 36.2,-14.7 54.7,-21.2 -6.7,160.4 -14.3,327.2001 -22.6,498.1001 -44.8,40.9 -89.5,81.8 -134.3,122.7"
         style="fill:#95693f;fill-opacity:1;fill-rule:nonzero;stroke:none"
         id="path178-1" />
      <path
         d="m 20433.904,12736.874 c -86,38.2 -152,114.8 -205.6,189.7 -12.6,17.6 -23.4,39.2 -40,53.6 -6.1,5.3 -14.4,9 -20.4,9.4 -7.7,0.6 -12.1,-0.6 -18.3,-3.8 -33.8,-17.5 -53.6,-60.3 -64.5,-95 -5.8,-18.4 -25.7,-21.6 -39.7,-10.5 -11.2,8.9 -22.5,17.8 -33.7,26.8 -17.2,1.9 -33.5,-8.3 -46.1,-19.3 -17.3,-15 -31.2,-32.8 -46.3,-49.9 -25.8,-29.2 -66,-57.3 -106.8,-55 -7.6,0.4 -14.9,2 -21.8,4.5 2.6,-139.6 5,-286.1 7,-437.8 7.5,-2.5 14,-8.3 15.8,-16 13.6,-61.5 70.4,-104.8 132.6,-113.1 24,-3.2 52.4,-0.2 75,10.6 29.9,14.3 52.9,39.1 76.2,61.9 25.5,25 52.3,48.8 85.9,62.1 41.7,16.6 86.8,9.1 129.5,1.1 56.9,-10.5 113.8,-21.2 170.6,-31.9 -8.5,139 -16.9,273.9 -25,403.3 -8.2,2.7 -16.4,5.8 -24.4,9.3"
         style="fill:#95693f;fill-opacity:1;fill-rule:nonzero;stroke:none"
         id="path180-8" />
      <path
         d="m 20417.904,12288.474 c -48.4,9 -96.9,19.8 -145.7,26.8 -39.5,5.8 -74.2,0.4 -106.2,-24.1 -28.4,-21.7 -51.2,-49.8 -78.7,-72.5 -26.8,-22.2 -56.6,-38.8 -91.4,-44.1 -33.1,-5.1 -67.2,-2 -98.8,9.3 -38.6,13.8 -73.8,38.3 -98.3,70.7 2,-179.6 3.3,-365.5 3.7,-554.7 49.1,8.1 105.4,-2.7 138.7,-42.4 9.1,-10.9 14.4,-23.3 22.2,-35 4.5,-6.8 8.7,-8.9 16.3,-6.9 24.2,6.5 34.4,36.2 47.3,54.7 16,23.2 37.3,41.2 65.8,45.8 28.3,4.5 57.4,-2.1 81.9,-16.7 31.7,-18.9 51.6,-48.7 66.2,-81.4 10.3,24.8 22.7,48.6 39.6,69.9 25.1,31.7 61.8,54.6 102.2,60.2 42.8,6 82.1,-10.4 109.6,-43.5 11,-13.1 21,-27.2 30.6,-41.6 -12.1,209.1 -24.5,414.7 -36.6,612.7 -22.8,4.2 -45.6,8.5 -68.4,12.8"
         style="fill:#95693f;fill-opacity:1;fill-rule:nonzero;stroke:none"
         id="path182-7" />
      <path
         d="m 23082.204,12243.274 c -158.9,651.1 -538.4,1246.2 -1061.7,1664.9 -523.3,418.7 -1187.2,658.5 -1857.2,670.7 l -948.5,-127.4 c -646.2,-524.8 -855.5,-1405.8 -1026,-2220.6 28.6,74.3 78.7,140.3 142.6,187.8 -125.3,-540.8 -141.8,-1106.5 -48.4,-1653.8 102.9,183 221.1,357.3 353.1,520.5 19.7,-34.2 39.4,-68.3 59.1,-102.5 335.3,415.7 609.3,880.8 810.6,1375.5 -146.5,-625.9 -131.1,-1289 44.1,-1907.5 56.9,165.2 143.1,320.2 253.4,455.7 -29.9,-478.2 44.7,-962.7 217,-1409.8001 179,459.0001 299.2,940.9001 356.7,1430.2001 47.8,-153.6 95.7,-307.1 143.5,-460.7 163.5,600.3 201.8,1234.4 111.8,1849.9 256.6,-463.3 566.7,-897 922.4,-1289.5 57.7,203.2 90.1,413.5 96.2,624.6 73.3,-362.3 211.9,-711.3 407.3,-1025 229.1,476.9 240.4,1053.4 30.1,1538.9 135.5,-111.5 258.3,-238.4 365.3,-377.5 2.4,151.7 -29.2,303.9 -91.9,442.1 204.6,-151.1 468.4,-219.3 720.5,-186.5"
         style="fill:#ac9420;fill-opacity:1;fill-rule:nonzero;stroke:none"
         id="path184-8" />
      <path
         d="m 18391.704,14827.974 c -682.6,-410.2 -1181.2,-1114.9 -1340.9,-1895.2 60.1,37.1 120.3,74.2 180.4,111.2 -1.9,-60.8 -3.9,-121.6 -5.9,-182.4 237.6,150.6 446.4,346.6 611.8,574.2 -18.8,-172.8 -37.6,-345.7 -56.4,-518.5 333.7,442.3 714.8,848.9 1134.7,1210.6 -498.1,-659.3 -889.7,-1458.1 -814.2,-2280.9 187.4,171 385.6,330.3 593,476.4 4.8,-62.7 9.6,-125.4 14.5,-188.1 277.6,358.7 475.2,778.9 574.2,1221.5 22.5,-181.8 45,-363.6 67.5,-545.5 320.3,351.8 594.9,745.3 814.5,1167.4 -146.1,-794.6 -290.9,-1623.4 -67.7,-2399.8 47.8,81.6 95.6,163.2 143.4,244.8 -34.6,-151 -11,-314.7 65,-449.8 139.8,418.7 280.3,840.3 341.7,1277.4 61.3,437.1 39.5,895.5 -136.2,1300.5 377.8,-497.4 741.9,-1005.1 1091.8,-1522.4 19.1,101.4 66.1,197.3 134.5,274.6 51.8,-117.5 103.6,-235 155.3,-352.6 86.1,7.5 174.5,-39.7 216.1,-115.5 30.2,678.4 -327.9,1360.7 -903.3,1721.1 525.6,-66.6 1018.6,-359.9 1327.9,-790 -8.3,55.5 -16.7,111 -25.1,166.4 196,-153 365,-340.3 497.2,-550.8 77.9,208.3 134.4,424.6 168.2,644.4 120.3,-283.1 317.7,-532.9 565.2,-715.5 22.8,341.5 -112.6,680 -318.6,953.2 -206.1,273.3 -479,488.6 -760.9,682.8 -418.4,288.2 -868.3,539.3 -1356.3,680.7 -537,155.6 -973.6,63 -1508,27.6 -107.9,-7.1 -212.9,5.9 -318.1,18.8 -122.8,15.1 -245.8,30.3 -373.5,13.4 -251.3,-33.1 -495.4,-129.9 -711.8,-260"
         style="fill:#d0c010;fill-opacity:1;fill-rule:nonzero;stroke:none"
         id="path186-7" />
      <path
         d="m 18297.004,15310.774 c -264.7,-54.2 -553.8,-129.6 -700.9,-356.2 116.7,13.9 233.4,27.7 350.1,41.6 -51,-62.1 -102.1,-124.2 -153.1,-186.3 182.7,50.7 365.5,101.4 548.2,152.1 -62.4,-70.1 -124.8,-140.1 -187.2,-210.1 599,202.1 1243.2,268.8 1871,193.9 -299.1,-113.5 -620,-161.3 -917.7,-278.2 -453.2,-178 -840.6,-518.5 -1075.4,-945.1 92.9,57.8 185.8,115.5 278.7,173.3 -150.6,-221.3 -254.3,-474.4 -302.2,-737.8 339.2,206 665.7,432.7 977.1,678.6 -32.5,-106.4 -65,-212.7 -97.5,-319 437.7,385.9 856.3,793.6 1253.8,1220.8 -212.8,-545.6 -314.8,-1134.2 -298.2,-1719.7 63.7,67.9 127.3,135.8 191,203.7 29.8,-358.5 102.3,-713.5 215.6,-1054.9 196.7,324.6 312.8,697.6 335.3,1076.6 34.7,-52.8 83.1,-96.4 139.2,-125.6 101.7,457.6 73.8,943.3 -79.7,1386.2 90.9,-40.3 161.7,-114.4 229.9,-186.7 297.6,-315.3 595.1,-630.7 892.6,-946 25.5,97.2 51.1,194.4 76.6,291.6 43.4,-97.2 86.9,-194.5 130.3,-291.7 38.9,49.6 77.9,99.2 116.8,148.9 197.4,-230 394.7,-459.9 592,-689.8 148.2,268.1 101,612.7 -55.2,876.2 -156.2,263.5 -405.9,458.1 -665.4,620.8 -372.6,233.5 -777.7,414.9 -1200,537.2 789.8,128.7 1624.9,-43 2300,-472.7 -68.2,95.6 -136.4,191.2 -204.6,286.9 196.5,-211.8 431.5,-387.8 689.9,-516.9 -53.3,263.3 -274.5,458.1 -500.3,603.7 -493.5,318.4 -1074.7,494.1 -1660.5,517.7 -299.8,12.1 -601.5,-15.4 -893.5,-84.2 -107.7,-25.4 -242.8,-96.1 -354.5,-79.9 -121.3,17.5 -630.4,439 -1842.2,191"
         style="fill:#e8e008;fill-opacity:1;fill-rule:nonzero;stroke:none"
         id="path188-7" />
      <path
         d="m 19806.604,4509.2739 c -20.7,26.6 -40.4,54.1 -59.2,82.1 -28,42.1 -53.9,85.7 -77.2,130.5 -20.5,39.2 -36.2,82.5 -63.9,117.5 -10.2,12.9 -24.2,27.2 -38.5,33 -1.8,0.7 -3.7,1.3 -5.5,1.8 0.8,15.9 1.6,31.7 2.4,47.6 33.4,-5.5 61.1,-30.2 82,-57.6 29.3,-38.6 46.6,-84.7 69.1,-127.3 24.7,-46.4 52,-91.5 81.7,-134.9 3.7,-5.4 7.4,-10.8 11.2,-16.1 -0.7,-25.6 -1.4,-51.1 -2.1,-76.6 m -226.3,693.7 c 1,17 2.1,34 3.1,51 4.2,2.1 8.2,4.7 11.8,7.4 36.2,27.8 51.8,75.3 76.6,112 25,37 61.1,63.7 106.3,69.1 4.1,0.5 8.3,0.8 12.4,0.8 15,0 30.1,-3.4 43.2,-10.9 1,-0.6 2,-1.2 2.9,-1.8 -1.3,-26.2 -2.6,-52.5 -3.8,-78.7 -2.3,4.6 -4.4,9.4 -6.3,14.3 -3.5,9.3 -6.3,17.2 -13.2,22.9 -3.4,2.9 -8.9,5.2 -15.9,6.4 -2,0.4 -4.3,0.6 -6.7,0.6 -11.2,0 -25.4,-3.7 -36.7,-9.4 -38.7,-19.6 -55.3,-61.3 -76.3,-97.1 -21.4,-36.4 -53.6,-78.5 -97.4,-86.6 m 161,836 c -3.7,0 -7.5,1 -11.2,3.2 -36.2,20.9 -61.1,54.3 -82.3,89.5 2.4,27.7 4.8,55.3 7.2,83 7,-12 13.6,-24 20.2,-35.8 18.3,-32.4 37.2,-65.3 65.8,-87.1 32.4,25.5 64.8,51 97.2,76.5 19.2,15.1 37.9,31.1 57.8,45.1 2.9,2.1 6,4 9.2,5.8 -2.9,-21.5 -5.7,-43.2 -8.4,-64.8 -12,-9.4 -24,-18.8 -35.9,-28.2 -34.1,-26.8 -68.1,-53.6 -102.1,-80.3 -5.3,-4.2 -11.3,-6.9 -17.5,-6.9 m 17.7,831.3 c -19.6,0 -39.6,3.1 -58.7,9.2 1.7,16.2 3.6,32.3 5.7,48.2 17.7,-6.7 36.9,-10 55,-10 5.7,0 11.4,0.3 16.8,1 75,9.5 136.1,69 188.7,118.7 4.8,4.6 10.8,6.8 16.7,6.8 8,0 15.8,-4 20.6,-11.6 3.7,-6 7.5,-12 11.3,-18.1 1.5,-26.5 1.6,-54.4 0.4,-82.7 -13.1,16.7 -25.3,34.3 -36.9,52 -57.4,-53 -122.2,-105 -202.2,-112.7 -5.7,-0.5 -11.5,-0.8 -17.4,-0.8"
         style="fill:#8f7159;fill-opacity:1;fill-rule:nonzero;stroke:none"
         id="path190-4" />
      <path
         d="m 19741.004,6091.7739 c -28.6,21.8 -47.5,54.7 -65.8,87.1 -6.6,11.8 -13.2,23.8 -20.2,35.8 7.7,86.8 15.6,173.6 23.9,260.3 6.1,63.7 3.9,238.7 21.4,404.5 19.1,-6.1 39.1,-9.2 58.7,-9.2 5.9,0 11.7,0.3 17.4,0.8 80,7.7 144.8,59.7 202.2,112.7 11.6,-17.7 23.8,-35.3 36.9,-52 -6.3,-155.8 -47.6,-327.4 -60.2,-395.4 -19.4,-105.4 -36,-211.1 -50.1,-317.2 -3.2,-1.8 -6.3,-3.7 -9.2,-5.8 -19.9,-14 -38.6,-30 -57.8,-45.1 -32.4,-25.5 -64.8,-51 -97.2,-76.5"
         style="fill:#a98563;fill-opacity:1;fill-rule:nonzero;stroke:none"
         id="path192-4" />
      <path
         d="m 19808.704,4585.8739 c -3.8,5.3 -7.5,10.7 -11.2,16.1 -29.7,43.4 -57,88.5 -81.7,134.9 -22.5,42.6 -39.8,88.7 -69.1,127.3 -20.9,27.4 -48.6,52.1 -82,57.6 4.8,93.7 10.1,187.5 15.6,281.2 43.8,8.1 76,50.2 97.4,86.6 21,35.8 37.6,77.5 76.3,97.1 11.3,5.7 25.5,9.4 36.7,9.4 2.4,0 4.7,-0.2 6.7,-0.6 7,-1.2 12.5,-3.5 15.9,-6.4 6.9,-5.7 9.7,-13.6 13.2,-22.9 1.9,-4.9 4,-9.7 6.3,-14.3 -11.6,-254.9 -17.3,-510.6 -24.1,-766"
         style="fill:#a98563;fill-opacity:1;fill-rule:nonzero;stroke:none"
         id="path194-9" />
      <path
         d="m 19583.404,5253.9739 c 17.8,292.8 39.3,585.4 64.4,877.7 21.2,-35.2 46.1,-68.6 82.3,-89.5 3.7,-2.2 7.5,-3.2 11.2,-3.2 6.2,0 12.2,2.7 17.5,6.9 34,26.7 68,53.5 102.1,80.3 11.9,9.4 23.9,18.8 35.9,28.2 -29.9,-240.1 -48,-481.6 -60.2,-723.8 -0.9,0.6 -1.9,1.2 -2.9,1.8 -13.1,7.5 -28.2,10.9 -43.2,10.9 -4.1,0 -8.3,-0.3 -12.4,-0.8 -45.2,-5.4 -81.3,-32.1 -106.3,-69.1 -24.8,-36.7 -40.4,-84.2 -76.6,-112 -3.6,-2.7 -7.6,-5.3 -11.8,-7.4"
         style="fill:#a98563;fill-opacity:1;fill-rule:nonzero;stroke:none"
         id="path196-1" />
      <path
         d="m 19761.004,6917.6739 c -18.1,0 -37.3,3.3 -55,10 21.5,162.9 65.4,304.8 159.5,304.8 3,0 6.1,-0.2 9.2,-0.4 97.4,-9.3 133.6,-101.6 140.4,-217.6 -3.8,6.1 -7.6,12.1 -11.3,18.1 -4.8,7.6 -12.6,11.6 -20.6,11.6 -5.9,0 -11.9,-2.2 -16.7,-6.8 -52.6,-49.7 -113.7,-109.2 -188.7,-118.7 -5.4,-0.7 -11.1,-1 -16.8,-1"
         style="fill:#a98563;fill-opacity:1;fill-rule:nonzero;stroke:none"
         id="path198-5" />
      <path
         d="m 19716.104,4047.4739 c -20,0 -38.6,10.2 -54.6,22.3 -116.7,88.3 -122.7,258.4 -117,404.6 5.2,133.3 11.1,266.6 17.8,399.8 1.8,-0.5 3.7,-1.1 5.5,-1.8 14.3,-5.8 28.3,-20.1 38.5,-33 27.7,-35 43.4,-78.3 63.9,-117.5 23.3,-44.8 49.2,-88.4 77.2,-130.5 18.8,-28 38.5,-55.5 59.2,-82.1 -3.1,-109.6 -6.4,-219.1 -10.6,-328.5 -2.2,-57 -21.3,-131.7 -78.3,-133.3 -0.6,0 -1.1,0 -1.6,0"
         style="fill:#a98563;fill-opacity:1;fill-rule:nonzero;stroke:none"
         id="path200-5" />
      <path
         d="m 20066.504,7487.1739 c -8.6,37.3 -17.3,74.7 -26,112.1 -6.2,26.8 -12.4,53.5 -18.6,80.3 -5.2,22.4 -8.7,46.6 -17.6,68 -5.8,14 -15,26.6 -30.1,30.9 -4,1.1 -8.2,1.6 -12.4,1.6 -9.7,0 -19.7,-2.6 -28.6,-6.2 -34.6,-14 -57.1,-44.6 -81.2,-71.5 -25.5,-28.4 -55.3,-55.1 -93.6,-63.9 -3.8,-0.8 -7.6,-1.5 -11.5,-2.1 -1.6,16 -2.2,32.1 -2.3,48.2 15,3.2 29.2,9.6 42.3,20.1 30.1,24.4 50.6,58.4 80.4,83.2 26.6,22.1 59.8,39.4 94.8,39.4 5.6,0 11.3,-0.4 17,-1.4 43,-7.2 66.1,-45.1 76.8,-84 13,-47.4 22.5,-95.9 33.6,-143.7 4.6,-20.1 9.3,-40.1 13.9,-60.1 -9.8,-18.1 -22,-35.6 -36.9,-50.9 m -128.5,779.3 c -21.2,0 -42.3,5.4 -62,18.7 -29.2,19.7 -48.4,49.6 -65.5,79.7 -6.5,11.5 -12.9,23.2 -19.9,34.5 8.9,14.6 19.2,27.4 31,38.1 10.6,-14.8 19.8,-30.9 29,-47.2 15.1,-26.7 32.3,-58.1 61.7,-71.2 10.3,-4.5 16.9,-5.7 25.7,-5.7 1.8,0 3.6,0.1 5.6,0.1 8.1,0.3 7.4,0.3 15.5,2.2 6.1,1.4 12.2,3.3 18.1,5.5 4.9,1.8 9.4,3.8 15.9,7 6.1,3 12,6.3 17.9,9.6 12.1,6.9 23.9,14.4 35.6,22 16.4,10.4 33.5,21.8 51.4,31.5 7.3,-13.6 13.6,-28.3 19,-43.8 -1.8,-1 -3.5,-2 -5.3,-3 -24.4,-14.2 -47.6,-30.6 -72,-44.9 -31,-18.2 -66.6,-33.1 -101.7,-33.1"
         style="fill:#8f7159;fill-opacity:1;fill-rule:nonzero;stroke:none"
         id="path202-5" />
      <path
         d="m 20103.404,7538.0739 c -4.6,20 -9.3,40 -13.9,60.1 -11.1,47.8 -20.6,96.3 -33.6,143.7 -10.7,38.9 -33.8,76.8 -76.8,84 -5.7,1 -11.4,1.4 -17,1.4 -35,0 -68.2,-17.3 -94.8,-39.4 -29.8,-24.8 -50.3,-58.8 -80.4,-83.2 -13.1,-10.5 -27.3,-16.9 -42.3,-20.1 -0.1,21.6 0.8,43.2 1.8,64.7 5.2,114.4 -54.3,489.6 44.2,650.1 7,-11.3 13.4,-23 19.9,-34.5 17.1,-30.1 36.3,-60 65.5,-79.7 19.7,-13.3 40.8,-18.7 62,-18.7 35.1,0 70.7,14.9 101.7,33.1 24.4,14.3 47.6,30.7 72,44.9 1.8,1 3.5,2 5.3,3 44.7,-128 29.3,-309 32.4,-361.6 8,-135.5 15.8,-273.1 -27.6,-405.1 -4.6,-14.1 -10.7,-28.6 -18.4,-42.7"
         style="fill:#a98563;fill-opacity:1;fill-rule:nonzero;stroke:none"
         id="path204-8" />
      <path
         d="m 19938.004,8313.3739 c -8.8,0 -15.4,1.2 -25.7,5.7 -29.4,13.1 -46.6,44.5 -61.7,71.2 -9.2,16.3 -18.4,32.4 -29,47.2 13.6,12.5 29.3,22 47.3,28.1 32.5,11 61.3,16 86.8,16 68.9,0 113.5,-36.6 142.3,-90.3 -17.9,-9.7 -35,-21.1 -51.4,-31.5 -11.7,-7.6 -23.5,-15.1 -35.6,-22 -5.9,-3.3 -11.8,-6.6 -17.9,-9.6 -6.5,-3.2 -11,-5.2 -15.9,-7 -5.9,-2.2 -12,-4.1 -18.1,-5.5 -8.1,-1.9 -7.4,-1.9 -15.5,-2.2 -2,0 -3.8,-0.1 -5.6,-0.1"
         style="fill:#a98563;fill-opacity:1;fill-rule:nonzero;stroke:none"
         id="path206-2" />
      <path
         d="m 19940.804,7432.7739 c -76.4,0.1 -137.3,49.6 -164.6,101.1 -17.4,32.9 -25.7,67.4 -29.3,102.5 3.9,0.6 7.7,1.3 11.5,2.1 38.3,8.8 68.1,35.5 93.6,63.9 24.1,26.9 46.6,57.5 81.2,71.5 8.9,3.6 18.9,6.2 28.6,6.2 4.2,0 8.4,-0.5 12.4,-1.6 15.1,-4.3 24.3,-16.9 30.1,-30.9 8.9,-21.4 12.4,-45.6 17.6,-68 6.2,-26.8 12.4,-53.5 18.6,-80.3 8.7,-37.4 17.4,-74.8 26,-112.1 -29.8,-30.9 -70.2,-53.2 -121.9,-54.3 -1.3,0 -2.6,-0.1 -3.8,-0.1"
         style="fill:#a98563;fill-opacity:1;fill-rule:nonzero;stroke:none"
         id="path208-9" />
      <path
         d="m 19802.404,15065.374 c -9.7,0 -19.8,2.2 -29.3,4.4 -222.9,51.8 -451.6,77.9 -680.4,77.9 -104.3,0 -208.6,-5.5 -312.3,-16.3 -14.5,-1.6 -29.4,-3.2 -44,-3.2 -14.7,0 -29.3,1.7 -43.1,6.6 -27.6,9.9 -51.4,37.4 -46.4,66.3 2.3,13.2 10.1,24.7 18.9,34.7 52.1,58.9 138.1,71.8 216.6,74.6 21.2,0.8 42.4,1.1 63.6,1.1 273.9,0 549.2,-61.5 811.5,-133 26.4,-7.2 54.3,-15.6 72,-36.4 17.8,-20.8 18.6,-58.1 -5.2,-71.6 -6.7,-3.7 -14.2,-5.1 -21.9,-5.1"
         style="fill:#fcf800;fill-opacity:1;fill-rule:nonzero;stroke:none"
         id="path210-8" />
      <path
         d="m 18520.404,13826.074 c -12.4,0 -23.4,4 -30.4,14.4 -10.2,15.1 -5.1,35.3 0.7,52.5 81.6,241.2 244.8,452.5 453,598.2 92.2,64.6 212.5,140.7 323.9,165.4 10.8,2.4 29.5,3.7 51.9,3.7 96.1,0 261.5,-25.3 177,-104.6 -110.5,-103.7 -260.6,-152.8 -385.9,-237.9 -199.8,-135.8 -331.4,-359.8 -542.5,-477.3 -14.1,-7.8 -32,-14.4 -47.7,-14.4"
         style="fill:#fcfc6c;fill-opacity:1;fill-rule:nonzero;stroke:none"
         id="path212-2" />
      <path
         d="m 20298.604,13444.674 c -67.8,0 -129.8,47.9 -163.4,107.3 -35,62.1 -44.7,134.9 -50.8,205.8 -15.9,185.4 -11,373.8 26.3,556.4 17.9,87.9 70,305.5 148.2,305.5 27.6,0 58.3,-26.9 91.9,-95.9 50.8,-104.1 71.1,-220.4 80.4,-335.7 18.9,-235 -6.2,-473.4 -73.6,-699.3 -3.6,-12.1 -7.8,-24.9 -17.4,-33.1 -8.9,-7.6 -21.2,-10 -33,-10.8 -2.9,-0.1 -5.8,-0.2 -8.6,-0.2"
         style="fill:#fcfc58;fill-opacity:1;fill-rule:nonzero;stroke:none"
         id="path214-0" />
      <path
         d="m 17750.704,13775.574 c -0.1,0 -0.3,0 -0.5,0 -19.4,0.1 -39.6,5.1 -54.3,17.8 -28.4,24.7 -28,68.9 -19.6,105.7 21.3,93 77.6,173.9 137.3,248.4 211.1,263.5 425.2,432.9 756.6,509.2 7.9,1.8 16.7,3.2 25.2,3.2 14.2,0 27.4,-3.9 33.6,-16 11.2,-21.9 -12.4,-44.7 -32.9,-58.1 -254,-166.8 -485.2,-375.7 -643.6,-635 -48.7,-79.7 -108.5,-175.2 -201.8,-175.2"
         style="fill:#ece404;fill-opacity:1;fill-rule:nonzero;stroke:none"
         id="path216-7" />
      <path
         d="m 18417.004,12424.474 c -40.1,0 -75,36.2 -85.1,75.8 -10.9,42.3 -0.7,86.8 10,129.1 37.5,147.8 110.1,586.1 262.1,662.4 28.5,14.3 51.1,20.7 68.9,20.7 144,0 -32.6,-420.3 -49,-471.4 -42.4,-131.3 -40.5,-287.4 -139.6,-383.3 -16.5,-16 -36.5,-30.1 -59.3,-32.8 -2.7,-0.4 -5.4,-0.5 -8,-0.5"
         style="fill:#ece404;fill-opacity:1;fill-rule:nonzero;stroke:none"
         id="path218-4" />
    </g>
  </g>
</svg>
